/* XPM */
static char *_cb7b16bcc504da6bb45a6a69f00dcf3loWgoYr3eeyTIQhy[] = {
/* columns rows colors chars-per-pixel */
"64 64 72 1 ",
"  c None",
". c #040303",
"X c #171515",
"o c #1A1717",
"O c #1E1A1A",
"+ c #35000C",
"@ c #211D1D",
"# c #272222",
"$ c #2A2525",
"% c #2E2929",
"& c #322D2D",
"* c #293A30",
"= c #363131",
"- c #3B3535",
"; c #3F3939",
": c #413B3B",
"> c #464040",
", c #4B4444",
"< c #4F4949",
"1 c #5E444D",
"2 c #534C4C",
"3 c #5C5454",
"4 c #634B53",
"5 c #625A5A",
"6 c #685F5F",
"7 c #6B6262",
"8 c #706666",
"9 c #736B6B",
"0 c #767471",
"q c #7C7574",
"w c #D91E69",
"e c #847C7C",
"r c #BE728E",
"t c #C37894",
"y c #858282",
"u c #8D8484",
"i c #8E8F8F",
"p c #918787",
"a c #948A8A",
"s c #998E8E",
"d c #8D978E",
"f c #9C9393",
"g c #939991",
"h c #9C9899",
"j c #A19797",
"k c #A29D9D",
"l c #AB9F9F",
"z c #A7A3A3",
"x c #ADA2A2",
"c c #A9A9A9",
"v c #B3A5A6",
"b c #B5AAAA",
"n c #B9ABAB",
"m c #BDB2B2",
"M c #BBBCBC",
"N c #C1B5B5",
"B c #C6BBBA",
"V c #CBBEBE",
"C c #CDC1C0",
"Z c #D3C6C6",
"A c #D6C7C8",
"S c #D6CAC9",
"D c #DDCFCF",
"F c #D8D2CF",
"G c #DFD0D0",
"H c #D7D8D8",
"J c #E2D4D4",
"K c #E7D8D8",
"L c #EADBDB",
"P c #EDEFEF",
"I c #F5E6E6",
"U c #FFF8F8",
/* pixels */
"                                                                ",
"                                                                ",
"                                                                ",
"                                                                ",
"                                                                ",
"                                                                ",
"                                                                ",
"                                                                ",
"                                                                ",
"                                                                ",
"                                                                ",
"                                                                ",
"                                                                ",
"                                                                ",
"                                                                ",
"                                                                ",
"                                                                ",
"                                                                ",
"                                                                ",
"                                                                ",
"                                                                ",
"                                                                ",
"                                                                ",
"                                                                ",
"                                                                ",
"                                                                ",
"                                                                ",
"                                                                ",
"                                                                ",
"                                                                ",
"                                                                ",
"                                                                ",
"                                                                ",
"                                                                ",
"                                --        ;                     ",
"                               -:-:      -&:                    ",
"                               &vj&$&-:;=2a:                    ",
"                               -Bb%05%%;%9V:                    ",
"                               ::&qLJj2$%:,;                    ",
"                              :-,uJSmGSu2=&-                    ",
"                              $eKLCnunDFfsx5                    ",
"                             --mKmeybNGBhqmq                    ",
"                             &>BGfiMcvJvhHP9                    ",
"                            :-:NJbeegtwrdch7                    ",
"                           ::-&vDANnS1+4CsBe                    ",
"                          -:-;$uLmjhZ0*0Nfm7                    ",
"                         ::;:;%3JNfvCSVACxc3                    ",
"                        -:::-:-%xJBSCCACCGn,                    ",
"                       ;;;;;;;:$3GSVVCCCVJj%                    ",
"                      ;;;;;;;;-:$aLCCCCCZD7                     ",
"                     ;;;;;:;;;::==mJVCCVGv-                     ",
"                    :;;;;;;;;;;-:%,VJVCZJ5$                     ",
"                   ;-:;;;;;;;;;:;:$<NKJLu$-                     ",
"                   ;:;;;;;;;;;;;;;;%:ama=-                      ",
"                   -;;;;;;;:;;;;;;;:=%-&-:                      ",
"                  :::-::;;;;;;;;;;;-;--;;                       ",
"                  :;:--::--:;;:;;;;::;;--                       ",
"                  ;-,5:&---%$$;:-:-52-&<                        ",
"                   -;3753328e7&5,-=35%>6:                       ",
"                   ,:=;22:eKJJa,6-%=2,73:                       ",
"                    :,---#jJCZL7,5<pe&eJj                       ",
"                     =>,:&xIJJIq&2sULO%Km.                      ",
"                      o%-=3lnvq$@ ouB& %;                       ",
"                                                                "
};
