/* XPM */
static char *_230_a577860247da193ec7dad9abf2a7b340e1e80a2a0328a6f106d46c875ed316c4[] = {
/* columns rows colors chars-per-pixel */
"64 64 254 2 ",
"   c #010204",
".  c #01020C",
"X  c #07090B",
"o  c #020212",
"O  c #090A16",
"+  c #0D131C",
"@  c #161719",
"#  c #0F1112",
"$  c #1D201C",
"%  c #181927",
"&  c #1B1D33",
"*  c #0B1026",
"=  c #221E27",
"-  c #1D222B",
";  c #1C2124",
":  c #1F2136",
">  c #22242C",
",  c #27282A",
"<  c #242534",
"1  c #242935",
"2  c #2C2C34",
"3  c #2B2C3B",
"4  c #252639",
"5  c #2D323B",
"6  c #2C3033",
"7  c #343435",
"8  c #33343B",
"9  c #3A3C3B",
"0  c #38383A",
"q  c #32302F",
"w  c #232217",
"e  c #443D38",
"r  c #3E433A",
"t  c #42443C",
"y  c #2A2C42",
"u  c #2C3244",
"i  c #2E344B",
"p  c #343643",
"a  c #353A44",
"s  c #3C3C44",
"d  c #33354B",
"f  c #3B3D4B",
"g  c #353949",
"h  c #3B3C53",
"j  c #373A55",
"k  c #2F2F48",
"l  c #1F1D44",
"z  c #433E4E",
"x  c #3D424A",
"c  c #3D4253",
"v  c #3D4459",
"b  c #3F4963",
"n  c #424244",
"m  c #42434C",
"M  c #484A4B",
"N  c #434553",
"B  c #454954",
"V  c #4B4C54",
"C  c #44455B",
"Z  c #454A5C",
"A  c #4B4C5B",
"S  c #484550",
"D  c #514D59",
"F  c #4C525C",
"G  c #4B5156",
"H  c #53545C",
"J  c #5B5B5D",
"K  c #555658",
"L  c #51504A",
"P  c #65635D",
"I  c #4C4D63",
"U  c #454A64",
"Y  c #4D5264",
"T  c #4D526B",
"R  c #4B5A6A",
"E  c #535463",
"W  c #555A64",
"Q  c #5A5A64",
"!  c #53556A",
"~  c #555A6C",
"^  c #5A5C6B",
"/  c #5A5567",
"(  c #4D5674",
")  c #545572",
"_  c #555B73",
"`  c #5B5D73",
"'  c #555A7B",
"]  c #5C5C7A",
"[  c #565778",
"{  c #534E6A",
"}  c #625D6B",
"|  c #675F73",
" . c #5D626C",
".. c #5B6266",
"X. c #5D6274",
"o. c #5E637C",
"O. c #5E697D",
"+. c #63646C",
"@. c #676869",
"#. c #636473",
"$. c #656974",
"%. c #6B6B74",
"&. c #63647B",
"*. c #656A7C",
"=. c #6B6C7C",
"-. c #696679",
";. c #726D76",
":. c #6C717D",
">. c #6C737A",
",. c #73737D",
"<. c #78767A",
"1. c #72716B",
"2. c #625F5B",
"3. c #7E837F",
"4. c #838174",
"5. c #575E83",
"6. c #545D8E",
"7. c #5D6486",
"8. c #5C6597",
"9. c #636582",
"0. c #656A84",
"q. c #6B6C83",
"w. c #656B8C",
"e. c #6C6D8B",
"r. c #65668A",
"t. c #716D87",
"y. c #6D7284",
"u. c #6D728B",
"i. c #69758A",
"p. c #737484",
"a. c #757A84",
"s. c #7B7B85",
"d. c #73748B",
"f. c #757A8C",
"g. c #7B7C8C",
"h. c #7A7688",
"j. c #686C94",
"k. c #6C7394",
"l. c #6B7498",
"z. c #737493",
"x. c #757A94",
"c. c #7B7C93",
"v. c #72749B",
"b. c #757B9C",
"n. c #7B7D9B",
"m. c #7B7697",
"M. c #6D77A4",
"N. c #757CA2",
"B. c #777AA6",
"V. c #817C8A",
"C. c #827E97",
"Z. c #7D818C",
"A. c #7C8286",
"S. c #7D8294",
"D. c #7D829C",
"F. c #78849A",
"G. c #7D83A3",
"H. c #7C83AA",
"J. c #7C87A9",
"K. c #7B84B5",
"L. c #83828C",
"P. c #88878A",
"I. c #838494",
"U. c #83849B",
"Y. c #858A9C",
"T. c #8B8C9C",
"R. c #888A95",
"E. c #8C9399",
"W. c #94959B",
"Q. c #918E93",
"!. c #8385A3",
"~. c #858BA3",
"^. c #8B8CA4",
"/. c #8485AA",
"(. c #848BAB",
"). c #8A8DAB",
"_. c #8A87A6",
"`. c #8D92A4",
"'. c #8D93AB",
"]. c #8792A9",
"[. c #9394A3",
"{. c #9395AC",
"}. c #959AAC",
"|. c #9B9CAC",
" X c #989AA5",
".X c #858CB3",
"XX c #8A8DB4",
"oX c #8488B7",
"OX c #8C92B3",
"+X c #8B94B9",
"@X c #9395B3",
"#X c #959AB5",
"$X c #9B9CB3",
"%X c #949ABB",
"&X c #9B9DBB",
"*X c #9494BB",
"=X c #938EAB",
"-X c #A29EAA",
";X c #A29DB5",
":X c #9BA2AB",
">X c #9CA2BC",
",X c #9CA2B2",
"<X c #A7A6AA",
"1X c #A2A4B4",
"2X c #A2A4BC",
"3X c #A5A9BB",
"4X c #AAAAB9",
"5X c #B4B5BA",
"6X c #B0B0BA",
"7X c #A29C9E",
"8X c #C1B7B8",
"9X c #8C97C5",
"0X c #959BC3",
"qX c #989CC5",
"wX c #868AC1",
"eX c #9CA3C3",
"rX c #9CA4C8",
"tX c #9BA5D5",
"yX c #A3A5C3",
"uX c #A5AAC4",
"iX c #ABACC4",
"pX c #A4ABCB",
"aX c #ABADCB",
"sX c #A2A6CB",
"dX c #ADB2CC",
"fX c #ADB3C7",
"gX c #B2B3C5",
"hX c #B4B9CD",
"jX c #B8B8C9",
"kX c #A5ABD6",
"lX c #ACB2D1",
"zX c #ACB5DB",
"xX c #B5BAD5",
"cX c #B4BBDC",
"vX c #B7BAD7",
"bX c #B1ADCB",
"nX c #B7BBE6",
"mX c #A9B5E5",
"MX c #C3BFCF",
"NX c #BBC2DB",
"BX c #B9C0CA",
"VX c #BAC2E6",
"CX c #BECCFB",
"ZX c #C7C9D7",
"AX c #CED0D7",
"SX c #C5CAE8",
"DX c #D6DAF9",
"FX c #CFD2ED",
"GX c #DBE2F8",
"HX c #DFE0E4",
"JX c #E8EAFD",
"KX c #F6F9FD",
"LX c #E6F3FB",
"PX c #CBC1B7",
/* pixels */
"E %.R.[.2X&Xz.` 9 -.t.r.[ A h f J @.D z D ,.{.bX$XC.p.@X&Xf < 4XsX/.oX9X*X'.X.M _ ].&XB.).v.].>X$.a.,X~.OXdXF.5 b <X4.L c.*.r , ",
"3 - 8 p ) G.{.h., N z.9.9.-.*.q.` A / H > O > ^ =XI.{.#XdXR.X o B.kXtXkXkXVXGX3XX.u }.OXl..XH.J.>.y..XJ.N.J.rXpXi x M | G.(.S.Q ",
"f.$.q.Y y u O.E.@.s q.] &.| ~ &.{ [ ^ p 8 8 X X & A A j *.W.1.@ o X.u.T C c K >.r X F vXlXoXoXwX^.e.N.K.K.M.K.qXrX#.6 / G.l.0.m.",
"f.w.H.>X>Xi.*.Z.@.n _ ] ` ^ &.d.9.I < < +.L.=.:.e.q.&.T % # e K #   @ > 5 x 0 0 x >.Y j ).DXkX/.g.0.M.M.H.l.j.M.wXS.L E z.' U e.",
"N.B.v.j.qXlXi.O x ~ _ ( d p z d N 3 m R.[.g.U.!.=Xm.Y.vXS.7 q z E m.uXhX>X;XbXvXZXSXSX].* T FXHX;.y.H.j.w.7.7.B./.K 9 L _ 7.i.I.",
"G.8.N.#X!._ [ U k.b.( _ I ^ 9.t.^ m A [.$Xm.z.v.C.g.c.@Xo.9 e D rXSXsX.XXX/./.*XqXsX0XFX~.3 6 ..r ^ D.8.i.F.w.K.~.t w , u c ^ T.",
"&.).@XA + x |.bXl.8.6.J.'.f.-.m._.c.C a $.U.^.C.yXC.Y.).0.V 2 ;.cX*X~.!.~.%XqX@X%XXXOX).hXZX,   X E +Xl.l.l.8.K.f.M q 7 9.u.T E ",
"4X-.s , #   s U.K.M.wXeX'. .N e.k.z.U.f.C < 1 S C.`.Y.#Xn.#.+.|.zX+XH.(.].$XeX;X%X].).2X$Xp.0 Q , Z.sX8.6.i.M.K.o.7 e #.0XcX2XU.",
"@.Z 5.CXmX(   t F.Y X.=.A ) J.'.v.k.w.Y.U.m , @ O V I.-X=.| h.MX'.G.OX+X%X>X#XhX2X$X$XU.q./ ^ W , = Q Y.b.7.M.M.r 8 [ *X/.S.}.|.",
"S.eXkXtXkXVXT.7 7 I.V - =.pXkX!.#.h * * A g.W.L.B < 3 p f S p  X2XG.+XrX.XXXuX3X2Xd.Z & % u s s V.p . < v o.>Xo.q ,.^.N.#X,Xo.Z ",
"cX+XM.H.0X+X].X.`.DX3XI.fXdX+Xk.V p N &.!.=X'.Y.{.{.=.3 > 0 @ w ).>X].(.sXeXSXbX! % o % A &.d.{.1X1Xf.B * % / I n <X4XjXJ.u v 0X",
"tXK.J.'.S.~ D.hXXXv.qXgXS.f.y.^ 2.} I.T.c.w.n.J._.Y.c.-XL.D t   &.#XsXJ.H.=X` = O y ` V.}.$XC.g.d.`.3X X,.x @ q @.-XR.^ 5 Z.FX9X",
"9XzXBXF.A I.ZXG.oXB.SXD.- ! p.Q L %.t.-.e.w.F.'.Y.c.Y.g.#.<.,.> 3 2X(.OXn.d o < #.T.1X[.c.d.d.m.f.Y.y.F H @.D 7 D p.[.6 $ 3XVXzX",
"VX].U F jXiXJ.(.T.NXGXR. .)._.c.z p.C.q.n.F.~.#XS.p.a.=.p.[.|.R.- p.^.u.T 4 <.<X|.Y.g.C.d.p.p.p.y.v Z a./ 2 , 7 H #.V.R.r O X.FX",
"7XD > 8 E.fXdXNX3X`.*.5 E ^.n.d.x R.4Xm.x.!.n.w.u.c.I.U.c.-.{ / , - =.3 I x s P.{.{.U.=.$.V.=.E > s $.F % 3 f a H c.d.q.Q.+.% ! ",
"e L P J x ..v b X.R q.x 8 g.I.S , a h.U.!.!.!./.{.#X^.0.p * & ] L.J W :.=.s     y ] _.U.t.#.N G +.x > 2 f C d Z c ~ e.C.I.<X<X/ ",
"2.@.P.W.V.L q # x a.E Y.Y.{.^ , s X X , ^ L.g.U.,.M $ X ; E t.r.u.@XxXaX!.>X&Xz.x y h E r # 6 Y.~.! % a $.G 5 A d y W  . .+.+.[.",
"p } T.V.;.} 3.Q.K > ^ 3XjX` E p.s.+.2   . + * * % - ; F a.p.t.I ' ) U &.w._.hXpX3X^.o.+.t $ c J.S.-.Y g 5 E B g j C B x 7 2 p p ",
"h.} -.q.p.-.;.V.H [.ZX{.[.! -.[.[.V.=.s.%.f s ! ^.jX-.f %.=./ =.) [ { r.] ! e.C.(.!.&XI.r r  .0.-.e.X.~ Z d 1 F q.#.s 7 z +.[.U.",
"T.p.-.| | -.#.Q H p.f.h.Z ^ g.p.q.t.g.[.E.:.s.|.%X_.yXz + ` %.N ] e.k.) ) ] ) { [ 5.@X:.6 K a.*.! [ 9.] (.c.% p p.3 @ 6 9 8 A q.",
"E ^ &.) j h I I A E Y :./ {.}.&.o.0.g.p.*.*.$.*.v.m.).).< . D %.] ` 9.] 9.9.) ] [ r.d.q.Q Q y.0.` ` &.) 0.hX`.+ X a %.;.L m A C ",
"h ! q.n.e.z.c.e.t.I.g.^ T.Y.-.C.d.&.f.S.f.y.*.i.z.d.e.c.^.z   J g.` Z X.p.X.q.U.b.!.!.h.+. .#.0.*.0._ C C.3XF - N ,XAX6XE.W.T.A ",
"B *.S.~.n.).c.! d.I.g.5 ^ p.9.t.q.-.y.g.y.&.0.w._ &.U.t.c.R.q   3 #.T.C.p.E  .,.S.f.=.D V W I ) ` ` X.#.f 3 E [.hX`.c.=X;XT.p.} ",
"W E q.D.x.!.x.&.&.` N 3 B =.d._.^.}.T.Y.f.o.j.w.#.d.m.9.=.%.z @ . O p Q  X1Xa.$.y.$.5 7 +.#.] i.c.o.p % - %.1X4X`.d.n.t.&.#.S J ",
"X.8 7 s.I.t.d.=.+.M 6 > S [.n.k.{.S.i.a.*.&.D.x.U.q.h.V.z w } -XR.N X   @ L K 1.p.3 2 ^ ,.p.p.#.t # > %.{.d.z.n.q.d.D.i._ X.B >.",
"^ G , A C.).U.s.a.h.J s @.,Xy.7.$.S.O.~ 0.f.`.f.&.U.,., % <.W.MXZX-XI.E > . . . . p p - 8 = . X     Q @.-.Y.$XF.` i.d.x.c.*.a c ",
"c x G =.T j h N / h.L.Q s R.1Xx.g.s.%.$.U.R.g.p.1XL.2   # <.4XP.{.[.4XaX&X_.u.) J |.R.p - > > 6 0 > O B >.f.4X6XfX3X~.d.o. .Z c ",
"].y.A.`.c.k.! 5 & k H ;.0 m E.:XL.I.L.p.W.1X|.h.Q Q m H 7 % <XjX5X4X;X;XqXyXyX&XC.^.|.{.[.T.U.s.=.E s m a.m R  X`.}.X.T u.Y.'.3X",
"aXd.T.BXhXuXY.+.9./ } <.;.M V 1X<Xg.Z.+.=.s./ Y  X<X4X5Xs.  q AX7X<X6XgX;X_.!.).@X).z.e.n.x.e.w.=.p.L.^ x F ; ; $.W W }.lX%X_.>X",
"aX^ H h.-.! D } m.q.;.| 4.V.H =.a.N g ..#.< 3 S.T.:.C.1XjXs.@ L PX<X-XjXiX^.D.J.&XeX/.z.z.e.d.#XT.-.X.Y Z.`.f.Z , ; $.fX#X#XeX&X",
"d.} > # 4 k s V.T.V.<.;.;.;./ N X.:.Y S.Y.N D.hXc.x.!.!.}.ZXQ.r P.P.Q.[.`.~.OX+X&X~.'.2X}.u.0.D.T.-.B ^ y.y.*.F.B v ~.hX>X~.0.^.",
"C.V.1.V.1XQ.K 1.p.[.D q = X S g.y.c.D.y.D.>X2XS.!.z.m.!.c.V.5X1.8 V.-X}.1XuXkXrX:XT.f.p.S.[.Z.x ! *.q.u.w.*.G.F.Y.S.c.C v f.~ ..",
"#Xu.[.<XK w t L | 8 ..,.>.Z.=.E ~ ~ X.!.xX&XD.)./.j.B.B.F.y.^.iXe e h.g.e.0.` <.<.s / h.}.ZXyXU @ 5 B $.C f u.w.,.A.x u s.gXjXbX",
"g.I.,.% 8 4X[.g X 1.NXlXpXvX3X1Xq.^ U.$XY.x.G.x.` r.N.!.`.6X XB @ & I &.` z k 3 . 6  XJXFXyXaXlX Xa o Z 4X}.p.9...Y ~ }.,X}.4XiX",
":XV + N gXSXtX9XP @.fXrXB.oXXXvXZX-.Y X.T Y _ T N < Y a.a. .% + < _ x.l.j.f.^.Y.G c >.#X#X%XlXDXJXyX#.c L.jXZXiX].`.a.S.Y.4X|.-X",
"<.  W GXNXXXtXmXuXq.v ].NXJ.N.9XgX-.#.y.S.q.o.i.E.I.B Z.+.o g Y.l./.N.l.l.j.D.F.~.*.O.a.u.(.qXpXqXxX4Xs % < B q.$XS.&.ZX1X;XjXU.",
"[.=.d p.xXtX9XK.B.9Xb.o.`.>X].J.gX|.3X}.c.d.u.x.F.*.a B k ! lXOXM.H.H.H.H.N.w.l.l.w.O.F.y.n.lXqXXX$XE $.AX<XA.%.I.C.I 3XgXc.&.f.",
"#XaXXXi v >XrXJ.K.XXXXzXx.N :XAXf.g.^.y.&.i.u.*.J.n.C & -.vX*Xl.l.l.l.j.7.7.5.w..X(.].Y.y.^.yX!.=XC.D 7XHXAXKXKXKXgX~ fX[.d ~ '.",
"/./.'.@Xy.F X.S.NXdXxX)./ c ..A.{ _ &.` r.7.7.w.( v.D / ;X;XG.J.F.w.' i.w.7.7.M.B.9XxXa.G W s 3 3 = R.JXAXAXZXP.+.;.V.-.d n.cX@X",
"oXv.u.}.R.M x G J.>X,.% > / &.v.uXz.) ) 7.] ] ' 8.&.N e A U  .X.i.D.].>X#X(.+X+XK.oXl.a x $.<.-X<Xq V HXW.1.L , @ V m v U.).z.0X",
"B.b.d.Q L <.[.X.M 2 X B L.s.t.{ V._.C.B.7._ _ R A d ! q.%.J 7 @ a V @.K J <.C.=X,X}.x X L W.-X4X5X9 X > 2 z -.q.p.! o.d.e. .0.x.",
"N.G.E V I.-XT.f.^ $.B  .s.-.E k & v C h i i y 1 & { ~.U.[.^.%.s.qX^.{.,.> + t.h.9.C.:.K z q 7 z ..H 8 A p.` ! ` ` t.z.n.$.p Y D.",
"~.U 3 T.jXY.c.#X{ u.U.X.c m H <. X<.S %.$...0.*.` C.bXyXbX$Xh.;X9XqXXXvXvX3 N 6X;X;X$XjXAX8X5XPX5XAXZ.8 A =./ ` -.9.e.c.:.1 c '.",
"$.F ,.jX[.p.D./.q.!.#XU.d.W.1X5XMX2.@.4.%.,.-.q.| { | V.=Xq.^ 4XsX*X@X*XSX^.% 2 U ] m.C.C.;.4.-XQ.:Xs.< % A C N X.r.(.lX,XH f U ",
"3 s.4X|.S.!.G.b.Z.].i.D.U.`.gXT., 0 1.P.@.+.V.V.V.e , 2 + @ V $.d.n.).#XhXKX,.  j C ).@Xz.w.w.F.a.f.q.-.0.q.) h d ] r.%XS. .,.u ",
"0 <. XD.~.!.v.m...R u o.C.D.R.d.,.+.> % 7 J V.T.4.P <.-Xs.^ ,.A.+.A d.#.h g.0 K a.N T ] w.G.7.7.v.N.B.z././.j.B.'.N.5.9.F ^ R.$.",
"/ ,.[.y.F.b.n.) 1 G q.D.k.I % E W ~ t./ E %.z K 2.L 2 D 1X,Xa.}.gX6XjXV.< o O 8 g < + . + - & g j b ! U i.'.x.~.(.7.[ b f K D t.",
"} V.{.i.!.u.v.T M R.Y.x.).^.5 G ].3XaXjXiX5Xs.w , ;.-Xz % 9.U.0.$XiX{.$XgX} [.AX$XjX5XP.L , $ # - % % < % - 5 1 b 7.w.U f D z I.",
"=Xq.-.$X#XD.`.R 0.OXOXJ.~.f.&.gXFX9X9XM.}.BXL.C f.0XCXVXR O B T. X;X;X=X@Xf.BXLXNXSXDXSXFXAXHXW.i +XmX0XN.[ Z 1   1 5 M u.p.0 >.",
";X-X{ g.2Xx.@Xo.C ! ( u.u.d d jXrXb.l.pXdXX.^ }.VXtXK.kXLXA.  E Q.vXkX&XAX$.R DXxXlXlX>X,X,XBXNX7.( N.0XlXyX~.hXA.o - :.2Xc 2  X",
"2Xe.*.] S.`.c.! U i.v.i.u.'.,XbX].S.3XiXw.7..XD.B.0XtXnX}.M V g.,.0..X$XZXH d FXVXuX>X%XuX3X>X>XNXJ.w.j.N.(.&XSX3X5 Y x.t.d ^ |.",
"}.~ U.g.g.$X$XE v.fXuXOX>XdX[.g.AXjX..$.eX0X+XJ.H.kXzX7.1 W 4XpX).o.u g.HX=.m.GXfX>X'.%XpXNXcXmXdXGXSX%XG.*XzX).xXX.X.G.c C d. X",
"Y.i.S.d.U.Y.^.A 7.!.J.eXvX`.f @ &.p.6 a >XnXkXpX>X).' v Y.fX(.N.H.NX~.a V ,.ZXDXfXuX>XeXlXVXVXVXNXpXVXSXeXl.B.0XlXS.U l.B E r.[.",
"D.f.S.i.}.T.^ m ) eXcXrX7.Z #.I.] r.g.3 o w.NX&Xc U x.>X~.w.M.B.OXJ.+X}.n # Y.SXFXZXiX@X+XrXmXtXzX9XxXNX>XJ.k.B.XX>X0.v Y e.n.Y.",
"F.i.y.i.1XT.Q s $.dX].U U n.uX}.M.M.n.S.8   + 4 F '.#Xl.j.' ' J.F.5.j.^.P.L & l Z ^.SXNXrXJ.+XzXVXtXrXlXpX#X(.N.0XpX>Xc ! f.I.D.",
"'.F.( >.|.Z.} S G m c x./././.v.8.8.oXhX3.q 0 a.,X0.o.7.r.k.l.j.j.+X0.d V.JXFX,X` ! &.k.pXrXJ.rXkX9X0XrXfXpX#XG.%X0XhXF i y.a.n.",
"G G o.v.).^.A D U R #X].J.G.N.v.j.B.! x W i.J.K.w.l.j./.oXM.M.M.,XW # a ,XpXNXKXKXLX#XY Z 0.>XxXnXzXnXrXrXpXuXJ.(.*XkXqXh V #.#.",
"G A q.C.m.&.N E F.).@Xx.G.l.l.r.Y 1 . , :XhX+XM.j.N.XX!.k.w.z.>X#.# w z x 3 u ~ <X5XZXAXR.- ; W sXDXlX>XpXuX+XrX).N.XXlX` O % < ",
"I.`.S.p.d.&.T y.OXG.z.x.F.X.r.j.W H  .F c :.uXuXOXG.N.N.t.v.:.5 X e L q = < v u M 1 > ..A.X.x @ o y.BXGXNX}.].>X>XOX0XfX XM %.g.",
"-./ / E ! ) [ k.v.[ d.`.=.B w.D.rX>XeX%Xi.1 - ..y.h U 0.0.~ g - @.=.R.AXAX;XvXbX>X}.d.i.D.}.>X#X..X -  . .i d U X.o.o.S.5X@.7 p.",
"3 O % 3 C ~ ' H.m.0.s.=.8 1 *.'.OX%XqXzXSX;XN .   X - g d v 7.(.J.w.j v {.vXpXrXqXlX+Xl.l.j.j.H.<.r x G #.y.c.z.y.~ h g 8 9 , 3 ",
"g./ p 2 h.4XOXG.^.~ 1 - a B ^ q.U.z.n..XXXnXnX).M t @ F ,XH.j.M.l.F.l.& o ( lXkXJ.H..X%XoXB.J.%X2.x 9 G z Y.hX!.,X#X^.R.9 M V.^.",
"'.`.U.Q B A V 8 p z s Q =./ p & | [.f.q.m./.XXtX1XT.a % ~.VXK.B.F.J..X#Xd.* : b.].J.H.G.N.0XkX+XJ %.L.#.o & =.x.o.' p./ 7 1.6Xm.",
"lX>X}.}.V.0 $ , M K n D D / q.p ) _.R.I.Z.x.D.).*X=X}.$.1 w.cX9X.Xl._.{.ZXR.= z J..XJ.J.+XJ.H.0Xs.g.;X6X$Xh : c.).~.^.m s z C.bX"
};
