/* XPM */
static char *_3556_aa9c12179c99828dd50570ead4253e4dcd0f09a742af56b19fd7d8947944f636[] = {
/* columns rows colors chars-per-pixel */
"64 64 255 2 ",
"   c #030104",
".  c #05010B",
"X  c #0B010B",
"o  c #080306",
"O  c #16020C",
"+  c #0C0213",
"@  c #0B0815",
"#  c #130413",
"$  c #1B0514",
"%  c #160919",
"&  c #17131B",
"*  c #230B1C",
"=  c #260818",
"-  c #28121C",
";  c #331118",
":  c #1B0D23",
">  c #1C1325",
",  c #270B25",
"<  c #360E29",
"1  c #241324",
"2  c #2B1425",
"3  c #23142B",
"4  c #2B1C2C",
"5  c #2A1828",
"6  c #331424",
"7  c #3A142B",
"8  c #341B2B",
"9  c #3B1C2C",
"0  c #371826",
"q  c #291934",
"w  c #331B34",
"e  c #3C1C34",
"r  c #381836",
"t  c #330B30",
"y  c #3B232C",
"u  c #35222A",
"i  c #342333",
"p  c #3C2335",
"a  c #3C243B",
"s  c #392A39",
"d  c #2E2733",
"f  c #32201E",
"g  c #460E19",
"h  c #43151B",
"j  c #4B1A25",
"k  c #441C2B",
"l  c #4B1C2B",
"z  c #461627",
"x  c #531D2C",
"c  c #581A28",
"v  c #421D33",
"b  c #4A1D33",
"n  c #461C39",
"m  c #5A1D34",
"M  c #621E31",
"N  c #43232D",
"B  c #4C232C",
"V  c #47292C",
"C  c #53232D",
"Z  c #59252B",
"A  c #442334",
"S  c #4C2433",
"D  c #432A35",
"F  c #4B2B34",
"G  c #44243A",
"H  c #4B243C",
"J  c #442B3C",
"K  c #4C2B3C",
"L  c #532333",
"P  c #5B2533",
"I  c #542B35",
"U  c #5B2B36",
"Y  c #52253B",
"T  c #532C3C",
"R  c #5B2C3C",
"E  c #5C253A",
"W  c #4C323D",
"Q  c #463339",
"!  c #54323C",
"~  c #5B343D",
"^  c #5A3A3C",
"/  c #553638",
"(  c #57312E",
")  c #64242D",
"_  c #632434",
"`  c #632B3B",
"'  c #672939",
"]  c #63333D",
"[  c #68363C",
"{  c #72303E",
"}  c #65423D",
"|  c #3C1B40",
" . c #3C2944",
".. c #3F364B",
"X. c #4C2C42",
"o. c #472844",
"O. c #532C42",
"+. c #5C2C43",
"@. c #562A47",
"#. c #4C3344",
"$. c #4B3747",
"%. c #543343",
"&. c #5B3443",
"*. c #553B43",
"=. c #5C3B44",
"-. c #5C334A",
";. c #543B4B",
":. c #5B3B4B",
">. c #54364B",
",. c #593A54",
"<. c #513152",
"1. c #662D43",
"2. c #643343",
"3. c #6B3443",
"4. c #633A44",
"5. c #6A3B44",
"6. c #63354A",
"7. c #643C4B",
"8. c #6B3C4B",
"9. c #6B354C",
"0. c #7A3C4C",
"q. c #743847",
"w. c #643D52",
"e. c #6C3D52",
"r. c #663C58",
"t. c #753C52",
"y. c #722E40",
"u. c #5D3E67",
"i. c #5C414C",
"p. c #5B4448",
"a. c #5C4354",
"s. c #5B4857",
"d. c #4D4650",
"f. c #634245",
"g. c #63434B",
"h. c #6C424C",
"j. c #6A4749",
"k. c #734246",
"l. c #73444B",
"z. c #7A4C4E",
"x. c #77464B",
"c. c #644354",
"v. c #6B4353",
"b. c #644B54",
"n. c #6C4B53",
"m. c #6B455B",
"M. c #644A5B",
"N. c #6C4B5B",
"B. c #634259",
"V. c #734453",
"C. c #744B54",
"Z. c #7B4C54",
"A. c #73455A",
"S. c #734B5B",
"D. c #7B4C5C",
"F. c #7C4456",
"G. c #6C5358",
"H. c #7C5154",
"J. c #73525C",
"K. c #7C535B",
"L. c #7C5B5D",
"P. c #755757",
"I. c #7C534E",
"U. c #694A63",
"Y. c #744B62",
"T. c #7C4D61",
"R. c #6C5364",
"E. c #6A5667",
"W. c #745363",
"Q. c #7C5363",
"!. c #7C5C63",
"~. c #745A6B",
"^. c #7C5C6D",
"/. c #765768",
"(. c #785B74",
"). c #7C626A",
"_. c #7D6374",
"`. c #7A6875",
"'. c #853848",
"]. c #834C54",
"[. c #854A59",
"{. c #845254",
"}. c #83545C",
"|. c #8A555C",
" X c #845B5C",
".X c #8B5B5C",
"XX c #885855",
"oX c #905459",
"OX c #89625D",
"+X c #97605E",
"@X c #845B64",
"#X c #8C5C63",
"$X c #835C6B",
"%X c #8B5C6A",
"&X c #855566",
"*X c #955C66",
"=X c #875D73",
"-X c #8E4F60",
";X c #8C6365",
":X c #83636C",
">X c #8C636B",
",X c #8C6C6C",
"<X c #846567",
"1X c #936364",
"2X c #946B6C",
"3X c #9B6A6B",
"4X c #986568",
"5X c #98726D",
"6X c #836373",
"7X c #8B6573",
"8X c #8B6A74",
"9X c #846C7B",
"0X c #8B6C7B",
"qX c #856778",
"wX c #936C74",
"eX c #936B7B",
"rX c #976875",
"tX c #8C727A",
"yX c #9B7374",
"uX c #92727C",
"iX c #9C747B",
"pX c #9B7B7C",
"aX c #967777",
"sX c #A57879",
"dX c #A77172",
"fX c #A6817C",
"gX c #896E84",
"hX c #8C7483",
"jX c #937583",
"kX c #9D7C83",
"lX c #987988",
"zX c #94758A",
"xX c #A57B86",
"cX c #9C8189",
"vX c #9C8593",
"bX c #A4848B",
"nX c #A98686",
"mX c #B48988",
"MX c #B3918D",
"NX c #A68995",
"BX c #B58A94",
"VX c #AB929A",
"CX c #B79696",
"ZX c #AE948D",
"AX c #BEA199",
"SX c #AC94A3",
"DX c #B698A7",
"FX c #B38CA1",
"GX c #BDA4B0",
"HX c #C39E96",
"JX c #C7A29B",
"KX c #C09BA8",
"LX c #CDADAE",
"PX c #E0B9BC",
"IX c #E0C4C2",
/* pixels */
"b.b.f.*.=.j.p.g.] } ^ / ^ p.p.n.c.b.p.p.P.g.5.}.g.g.f.j.K.K.Z.Z.f./ =.=.g.L.l.x.P.f.G.n.^ / ( } i.c.G.*.^ W ! *.n.h.5.C.Q.v.b.G.",
"pX,XL.P.<XaX,X<X;X,X2XnX@X<X=.! 7.n.:X<Xg.h.0.[.5.{ 3.x.x.{ { x.]..X2.2.8.0.k.q.k.B / V F I 5.[.5.x.Z.h.C.8.4.Z.4.S.@XD.v.! Q s.",
"nXfXfX,XyXnXaXj.2XCXPXLXK.>X2XK.rX%XBXiX] }.[.q._ { q.{ ' _ _ ) F.|._ ` 9.y.y.q.[ Z 2.L 2.9.[.D.q.1.3.] ] R ` ' =.v.T.T.Q.c.J s.",
"OXOXyX,XH.I.I.[ I.P.H.H.}.k.k.*X0.] h.p.; 3.' m ' _ ' y.P C c j P R b z b L j P ' [ l.R 2.9.e.m O.Y 6.@.Y @.6.O.K 6.e.e.Y.W 2 M.",
"5X2X2Xz.z.;X4Xl.k.U U x.#X].].].k.] b.p.= S R P ' P ] ] S B V 0 I B A N 9 T S ~ ) [ [ R S >.! F 9 B.m.G T O.X.X.w.Y.A.e.Q.@.* U.",
"sXK.l.[ Z.C.5.Z j C.H.{.k.z.k.{.I.x.).b.X - I Z x R 2.U j B P j j z z I k S U P c ' Z ~ S g.:.p.B 7.^ z B T ~ I 7.A.e.2.Q.,.5 ~.",
"4.4.C.h.#XZ.8.2.l.5.k..Xk.x.+XOX3X1XtXQ X 9 B c l l Z Z j j x P c c x U C B B C c P P R I 5.' ) 5.2.U l C U h.] K 6.S.e.m.K - ).",
"v.~ 4.V.eXK.] 2.` [ x.I. XOX5XOX+X3XuX$ # ! h g h k k z z x U m g j h j B B h Z c c c x ' _ ) ) R R L B L z C L F k 2.7.V.%.& M.",
"e.R h.wX#XP.] v.5.}.%X&X>X%XrX=X3X+X<Xs - J.h Z m z g j z z x x C l z j z m E E c _ ' c m ' y.m m x Z U L L 1.+.Y T @.@.A.G 5 R.",
"9.b I V.C.] 4.Z.J.iXkX$X&XQ.Q.T.x.{.,Xp.* @X{ ; 9 9 A R L x _ _ ' ' M c ) ) ' _ m _ ) ' _ _ _ m m P m _ ' _ _ 0.+.O.6.r.=Xe 2 _.",
"m.-.l ~ L.5.4.2.n.qXqXS.N.c.-.K ~ [ S.#.$ K.F.g 9 0 0 l b P U j j _ _ ) ' ' _ _ ' ' M _ _ L P L E ` ' ' 3.' m t.9.6.9.9.%Xe 2 _.",
"A.w.6.I 4.8.2.9.7.7.7.w.c.-.O.n g.&.O.5 = V.{ j c c l x R ^ I ; j L I L +.2.L x P _ L L R T Y b +.E 2.3.R m m E t.+.r.1.T.9 $ m.",
"r.X.7 S.h.v.A.V.6.6.@.-.-.-.@.-.G 7 e $ 5 =Xt.2.m M 1.E b l k 0 6.L Y R 1.1.E +.x ' E E R 1.1.Y +.+.9.D.Z.8.e.A.t.-.e.6.&Xe $ ^.",
"gX~.K DXKX6X6.-.-.r.r.,.@.@.@.@.r , e % 2 &X-.S H Y Y b l E 9.t.-X{ y.q.q.y._ y.9.q._ m m 1.1.1.m 9.9.F.%XD.T.=XA.e.Y.e.&Xr $ _.",
"U. .* ;.M.O.v ^.o.X.<.o.o.| t r | , r % 1 :.G = : # # , 7 X.O.@.L l L R R 2.R 2.v.h.I S +.6.1.9.+.e.e.8.A.A.r.Y.Y.T.=XA.Y.8 1 ~.",
"> # X s 8 = O.v 3 + + 3 : 3 + + : : , % 3 >.a % : + + % 1 & X . . @ : X + % # # % & O $ 7 A 7 = , 2 8 0 k G b o.6.@.O.S v # 4 ~.",
"> q i E.%.K :.:.o.1 3  . .q  .q 3 a a.>.a a a o.a t 2 q o. .w > 5 i 2 - 7 7 w i @ > A N ; f D #.y y W F ! =.^ %.;.p >.#.u u p b.",
",.R.W.$X$XC.C.H.S O.K K A 8 y N h.%.T ~ T F T g.9 9 O.%.K 9 A F N y / } U I W y & #.*.&.^ Q ! c.^ =.f.p.=.:.=.g.:.Q a.M.i.a.i.G.",
"wXrXrX|.oX*X4X|.*X*X4X|.x.z.k.{ x.XX1X+X{.oX{.3XP.x.OXXXH.{.].[ {.k.} } I.z.} f d s.h.5.4.=.h.~ b.n.n.n.g.*.=.n.c.*.:.g.J.J.*.g.",
"7XZ.-X*Xq.-X].*X[.*X*X].k.dXsXdX3X.X4X4X+XsXoXmXsXfXmX2X3XfXdX.X4XyXOXXXOX2XL.Q y g.%XyX#X>XwX2.P.C.g.n.n.f.n.!.J.C.4.g.<X,XC.8X",
"W.e.@.2.` A.Y R +.b L ` U ` ] 3XPXBXwX@XH.yX>XBXCX,XcXpXL.wXBXiXoX*XC.[ z.@Xp.# / n.dXsXC.n.;Xk.C.h./ =.g.F ^ =.7.4.I 4.C.K.C.wX",
"X.M.(.m.@.v o.o.8 , c.jXc.T S @._.lXtXvXvX0X~._.DXlXvXvXlXqX0XVXxXT.! ~ 4.v.W X ^ L.#X! A G.@X8.B L C ] f.V V V ~ I &.C.4.4.4.!.",
"s.;.X.M./.>.#.w o.,.qX/.e M.(.U.a.s.$.zXSXE.M.U.lXjX0X6X_.M.).vXJ.G.p.C.L.! * o /  X%XT ;.tX!.~ U 4.] g.C.~ ! ! ! -.:.C.6.=.=.L.",
"_.NX#.9 A >.a.;.NXGXvX(.U.U.o.#.5 i 3 ~.hXa.a.E.^.Y.N.i.R.8X9XG.tXvXG./ G.^ 5 d f =.8XM.#.*.A &.x.8.I C 4.p.^ ^ %.S.-.&.=.=.T %X",
"~.hXa.p o.#.U.gXhX9XgXNXVXvXs.E.R.$.(.NX`.gXzXhXhXE.NXjX8XuX:XtXjX*.i.6XN.S $.> l f.Q.&.&.! W O.( [ z.[ [ 5.U ! ~ ^ 7.&.%.&.! n.",
"J o.a >.M.U.`.~.s.E.gXgXE.VXvXvXGXDXGXSXDXNXhXgX`.`.DX~.SXtXG.`.uX_.0XcX6X&.s & / n.J.T %.%.O.%.=.U l.z..X@Xj.7.*.T =.! T K K :.",
"s w o.s.s.a.a.a.;.q #.,.5 p 8 5 %.N.~._.0X$.`.SX`.9Xd.s.zXhX_.zXqXhXvXqXS.*.f   V n.J.F *.K A 9 ~ I l.@XK.4.F &.%.*.c.;.K X.*.B.",
"R.a.s o.#. .o.#.o.;.`.a.D p y 6 F 6 0 9 B.E.zXNXvX`.gXhX/./.gXxX:X).).qX$X*.d @ 0 g.N.=.7.%.K K T B &.5.[ T K O.K K c.:.A K :.c.",
"(.m.e 7 e G o.n J vXDX< 7 l Y S z R S A qXVXzX^.R.-.eXeX&X=X=Xm.jXW.a.xXlX%.a . V g.v.&.:.&.&.@.Y &.V.8.2.2.%.H ! H :.w.K K :.m.",
"6.S z b z Y 6.b 6.eXjX; R m P ' q.L ~ NXLXDXNX=X2.D.e.A.9.eX>X=X8Xc.S.gX&Xv.Q # W ^ *.=.8.w.e.6.S 8.Z.0.] 2.&.b R S R 7.6.6.A.S.",
"1.j x ` E ` 1.` ` 1.] g 3.M M M y.P Q.CXDX).).LXxX>X4.R Y.BX=X=XrXW.eX&X9.&XW O I I V.$XS.e.A.e.R ` P Z ` k.8.R ` R ` 3.1.e.F.[.",
"0._ M y.0.y.q.-X[._ _ ' { ].[.'.y.` 7XNXjX9XCXS.VXpXL.uXS.Q.=X%XBXeXT.T.e.&X:.X = B $XxXD.9.F.F.3.q.[ { q.3.3.9.].[.-X[.0.'.-XrX",
"4.z l C C 0 L f.K K l 0 C B U 4.( ; ^ tX$.d.d.  Q =.N D / F V j.&.S A T %.#.- o ; C.p.W Q N y 5 u f / f F N f V ^ ~ B g.f.F T &.",
"i % # # % # % o   @ & @ @ @ @ . o $ O #     o   o @ . X . o # . $ $ = $ X X o   B K.h.= $ = = = $ - y 6 N 9 N 0 = e 6 9 9 a a r ",
"r.O.n n ! +.-.v k H @.S F &.1.n W i.i 2 & o o -  .a 1 a i 4 p J ! D G v < e y y U 4.z.0 z N N A ,.N.W.Q./.c.N.h.,.(.~.U.,.U.E.(.",
"bXkXkXpXbXnXMXnX.XrX4X%XrX4X&X&XY.r.O.X.:.b.7.4.J.G.g.S.J.J.<X2XL./ :.S.7.C.#XCXHXmXfX} P.fXpXf.Y 7.m.Y.h.k c.D.T.&XT.D.T.^.Y.=X",
"nXnXCXnXnXpXsXyXaX8X).<XW.,.K G +.O.o.7 r $XeXA.nXsXnXZXCXJXJXJXnX<X<X>X,XCXmXMXJXZXLXAXPXIXIXcXU 8.H.:X!.C.iXnXyXwX2X2XsXaXj.K.",
"8.2.D.[.t.q.0.F.-.z < G z n @.z n O.;.t , N.^.$X.X#X1X3XdXsX4X3XfXMXMX>X[ H.XXXXP.,X,XL.8XjXbXT.*X.XwXZXZXaXpXyXCXCXCXZXCXkXG.tX",
"X.w e a n 7 n n @.r v v n r.-.n z L K 1 5 M.c.W.q.4X#X].*XdX*X*X.X3XdXxXrXx.' { L.C.2.3.C.D.F.e.F.8.uXbXaX,X).;XlXxXpXpXbX<X*.eX",
"<.w q t r t n 7 t n o.z 6.jXe.b { 3.R $ * Y.w.6. X5XyX5X.X.XOX X[.sXxXBXeX4.[ [ ) q.|.*X].0.q.[.q.9.jXjX`.hXuXxX>X>X>XxXmXK.I 6X",
" .q t w r r t r r 7 n @.Y.7X&X2.] R c.d : ,.v.V.;Xl.H.3X*XZ.#XxXwXcXNX`.tXN.&X[.R t.].F.].' F.2.9.9.kX8XNXb.:XxX X4X+X4XsXiX! 0X",
" .r q w e r e r X.o.m n r.hX7X2.[ 1.:.: + a.S.T.k.] [ OX4X>X%X-XrXuXVXlXlX:XeXZ.e.8.3.q.F.Z.&XV.+.T.xX:X!.J.wXwX*X3X4X+X3X2X! =X",
"w w 3 * 1 e a e J v 7 7 N.NX0XS _ 9.M.@ . ,.S.8.V.2.[ z.XX#X-X].}.S.8XhXtX0XxX>XD.l.Z.#X|.%X#XD.6.v.S.c.*.qXxX$X#X4X3X3X2X<XG ^.",
"q 1 1 * 2 8 8 8 s e < e E.vXjX-.P l v + + #.8.5.&Xh.5.H.XXXX}.x.{.l.@X0XqX0XjX:X>XK.Z.].5.Z.5.v.&.H Y &.S A.D.A.<X4XdXsXmXtXG qX",
"4 3 5 1 2 u 8 8 s J A O.$.>.#.H 2.Y K @ . d.>X}.4.5.l..X.X{.XX{.k.C.L.$X^.^.J.i.$XC.k.k.k.;X}.8XQ.w.2.7.e.V.2.2.@X1XoX4XnX).u qX",
"d 4 5 > 1 w 4 i 5 p A K J 5 e S 1.l G & . W wXfX4.l.H..X{.x.].].].H.l.n.N.N.:.b.V.k.k.q.z.1X@X>X8X%XD.A.%X#XH.7.,X2XXX.X,Xb.8 9X",
" .> 3 1 1 5 1 8 p p G v A p n H E Y J & @ p.xXyX[ x.z.XX.X X#XZ.XXj./ 2.&.%.^ W.}.#X4XoX{.].x.k.l.}.-X|.|.}.>X,XeX3X1X1XI.s u (.",
"..3 3 > : : : s p %.7.H s #.G n l l p @ & b.fXyXz.XX{..X1XXX#XD.I./ [ j.8.6.w.$XC.#XdX4X4XoX*XZ.-X}.].4X X.XnXCXbXyXsXfXj.6 p gX",
"s > @ > : @ q s o.9 D p.*.X.>.>.D y 4   . s G.P.} ^ OX,X,X XP.x. XP.P.).*.$.*.p.s.p.P.f.b.~.;.*.c./ N =.=.^ <XcXn.b.b.E.d o 0 wX",
" .> @ & 3 3 > d 1 1 5 u % % 1 3 - % & @ @ i K T 0 $ i.Q 2 a 5 2 6 f 5 5 > & & % @ o   o X + X o $ 8 - 6 * O u - 0 - $ 5 . & s.:X",
"$.q 3 > q q 3 2 1 i J Q s d w s Q d 5 4 J M.N.2.;.A ;.8 $ e n 5 * 5 d s d 3 s : @ 1 & u $.d.G.d.R.B.a.i.i.p.#.p.W W $.s s E.).Q.",
",.a  .q , r e e 9 =.*.p.P.E.~.`.).G.b.d.G.<X;XP.f.n.tXj.^ :.h./.W.b.N.D %.;.w.,.,.:.g.,XNXuX,XOX,X8X<XJ.n.n.L.L.).<Xb.a.^.uXiX>X",
"M.%.#.#.;.W.^.:X1XmXpX5XfXCXLXLXLXGXZXZXAXCXfXfXCXJXCXaXaXfXMXZXDXCXnXk.xXnX] A.@.C.yX1X4XiXsXmXxXyX2X4X4X2X4X+XmXxXH.K.kXrXsXmX",
"=.K 8 w ;.c.m.&X;XfXfXyXfXCXHXyXcXhXcXAXJX;XI.wX).nXpXfXcXNXJX). X5XXX XJXCX4.K H H.JXHXMXsX;XXX} Z [ {.3X3X{.oX{.~ 2.S.&X4.5.yX",
"-.o.7 o.<.o.-.t.f.#X>XsXBXbXwXn.(.vXhX8XcX,X:.G n.NXVX8X).G.G.J.).,XL.fXMXjX#.% ! aXZXI.I F v.h.] ,X@X@X1X}.z.5.L v e a.B.5 D ;.",
"U.| | u.<.| <.<.B.^.=XNXDXzX^./.zXhXR.jXSXJ.9 X.<XmX,X4.L.C.K.NX6XW.iXnXMXVXd 3 H ^.L./ O.@./.&.W b.^ k f.D.5.5.@.o.|  .u. .q d ",
"s.r | | <. .o.X.U.gXqXgXxXjXqX0XzXs.$.U._.o.6.r.-.FX/.$.zX`.`.9X@XQ.eXeX0XzX5 + ,.R.kX7., t t r 7 v n X.-.-.H Y.g.y >.v o.G 5 D ",
">.v X.o.o.<.B.,.U.=X0X^.qXgX6XlXgX;.U. .U.Y.-./.e.Y.%.D ~.9X/.Y.wXeXbXn.6XNX5 % a.qXkXv.z r < e H A.w.H o.-.m.qX:.K >.r e e s $.",
"^.h.K e n -.m.%.r.r.,.,.>.W.zX0XSXgXE.>.zXzX^.9.0X0XJ.B.R.c.v w.Q.S.7XN.lXjX$ 1 G.cXpXJ.H o.7 H n &.O.G X.W.lX~.J J X.e e w a s ",
"S.7.&.>.@.-.r.@.@.r.c.c.O.A O.9 `.zX(.=XzXY.xXzXlXNXW.%.w.S.T.A.=.C.!.S.8X9X$ o qXnXiX;XS v , 6 6 X.A A s.W.(.s.o.G G n o.o. .o.",
"=Xw.n @.-.@.r.m.7.m.Y.o.X.G ; N.VXqX~.gXzX6XqXG.R.qXJ.h.T.7.T.2.=.C.S.T._.`.& % 6XwXsXsXL 6 6 6 6 T ;.A G 2 0 A X.e K v e G a <.",
"DXT.n @.r.r.@.-.A.&XY.H v n &.jXW.:.0XvX6XqX8XaX6X~.).eXBXK.S.C.eX$X7XkXcX9X$ p S.C.fXMX&.G K D A 9 &.K ; 6 6 v O.%.Y.c.%.H 8 #.",
"CXQ.-.T -.&.7.7.] C.Y.r.n r.xXeX6XW.6XgXM.^.8XuXNXcXbXwX$XS.!.8X>XqXxXjXlX~.O 4 v.8.iXyX&.G G J T 9 9 6 9 :.K *.T 4.>X.XK.=.A A ",
"nXL.$X@XwXjXpXL.H.h.T.Y.r.zXKX8XNXNXjXbX0XlX<X).jXVX8X$XxXkX).uXxX$XiXNXVXJ # d.Q.C.2XZ.+.H e G A.&.A.A.S.0XT.S.8.K.4X3XmXyXiX^."
};
