/* XPM */
static char *_712_910842097682360831d0476c17e204e5c045223dffd8e7817df124b8285c00e2[] = {
/* columns rows colors chars-per-pixel */
"64 64 252 2 ",
"   c #5A2205",
".  c #632501",
"X  c #6B2C02",
"o  c #682C05",
"O  c #732C01",
"+  c #6D3301",
"@  c #693706",
"#  c #743300",
"$  c #7A3403",
"%  c #743B03",
"&  c #7B3B01",
"*  c #773A0B",
"=  c #753E15",
"-  c #6A2C18",
";  c #531B00",
":  c #7C4301",
">  c #7D440B",
",  c #794705",
"<  c #7C4614",
"1  c #71470C",
"2  c #7F4F22",
"3  c #833E01",
"4  c #893D04",
"5  c #834302",
"6  c #8A4403",
"7  c #844B03",
"8  c #8B4B03",
"9  c #84440B",
"0  c #8A450B",
"q  c #854B0B",
"w  c #8C4B0C",
"e  c #914502",
"r  c #924D03",
"t  c #924C0A",
"y  c #984A09",
"u  c #8D5303",
"i  c #8D530B",
"p  c #865409",
"a  c #945404",
"s  c #995403",
"d  c #945B03",
"f  c #9C5A04",
"g  c #93540B",
"h  c #9A550C",
"j  c #965C0A",
"k  c #9B5C0C",
"l  c #834B12",
"z  c #8C4C14",
"x  c #8C4C19",
"c  c #864715",
"v  c #934C12",
"b  c #934C19",
"n  c #8D5314",
"m  c #8B5616",
"M  c #945313",
"N  c #9D5513",
"B  c #955B13",
"V  c #9B5C13",
"C  c #955B1C",
"Z  c #9B5C1B",
"A  c #99541C",
"S  c #A35B03",
"D  c #A25B0C",
"F  c #A65906",
"G  c #A35E18",
"H  c #B75D11",
"J  c #9C6209",
"K  c #9C6314",
"L  c #9A6618",
"P  c #916613",
"I  c #A46304",
"U  c #A4630B",
"Y  c #A9680A",
"T  c #A16314",
"R  c #A46A14",
"E  c #AA6C14",
"W  c #A1641B",
"Q  c #A56A1B",
"!  c #A96919",
"~  c #B26A12",
"^  c #B66B19",
"/  c #AA7217",
"(  c #B87918",
")  c #B46F09",
"_  c #965A22",
"`  c #935232",
"'  c #A15B22",
"]  c #9B6224",
"[  c #9F7022",
"{  c #A86A25",
"}  c #B26C29",
"|  c #AA7824",
" . c #B87627",
".. c #BC7B33",
"X. c #A76635",
"o. c #C37D19",
"O. c #C37709",
"+. c #C47B24",
"@. c #B8841A",
"#. c #BB8326",
"$. c #B68630",
"%. c #C98406",
"&. c #DC8C06",
"*. c #DD980B",
"=. c #C4841B",
"-. c #D78B1B",
";. c #DC9414",
":. c #DD9A15",
">. c #DB971B",
",. c #C99118",
"<. c #EB8E06",
"1. c #E59304",
"2. c #EB9404",
"3. c #E69A04",
"4. c #EC9B04",
"5. c #E5950B",
"6. c #EB940B",
"7. c #E69C0C",
"8. c #EC9B0C",
"9. c #F29504",
"0. c #F39B05",
"q. c #F3950B",
"w. c #F39C0C",
"e. c #FA9C0C",
"r. c #FA9907",
"t. c #E88D15",
"y. c #E49514",
"u. c #EC9512",
"i. c #E59C13",
"p. c #EC9C13",
"a. c #E2931A",
"s. c #EB961B",
"d. c #E49C1C",
"f. c #EB9C1C",
"g. c #F39613",
"h. c #F39B13",
"j. c #FA9C13",
"k. c #F39D1B",
"l. c #F99D1A",
"z. c #F89616",
"x. c #DDA417",
"c. c #DDA10D",
"v. c #E5A30D",
"b. c #ECA30D",
"n. c #EEAA0C",
"m. c #E8A608",
"M. c #FCAD04",
"N. c #F4A30C",
"B. c #F9A30C",
"V. c #F4AB0D",
"C. c #FCAC0C",
"Z. c #F6A604",
"A. c #F5B20C",
"S. c #FBB20C",
"D. c #F9B206",
"F. c #E5A414",
"G. c #ECA313",
"H. c #E6AA14",
"J. c #ECAA14",
"K. c #E4A21B",
"L. c #EBA41C",
"P. c #E4AA1B",
"I. c #ECAB1C",
"U. c #F3A413",
"Y. c #FBA414",
"T. c #F4AC14",
"R. c #FBAC13",
"E. c #F3A41B",
"W. c #FCA31B",
"Q. c #F3AB1B",
"!. c #FBAC1B",
"~. c #ECB114",
"^. c #EDB11C",
"/. c #E6B11A",
"(. c #F4B215",
"). c #FDB214",
"_. c #F3B31C",
"`. c #FCB31B",
"'. c #FBBC1C",
"]. c #F7BA18",
"[. c #EEB00D",
"{. c #C88A25",
"}. c #D68C24",
"|. c #CC9528",
" X c #DD9422",
".X c #DB952A",
"XX c #DB9C2A",
"oX c #D69625",
"OX c #C58835",
"+X c #DA9934",
"@X c #C99438",
"#X c #E39B22",
"$X c #EB9D23",
"%X c #E69727",
"&X c #F29C24",
"*X c #F99D24",
"=X c #E59835",
"-X c #DEA626",
";X c #DBA336",
":X c #E5A423",
">X c #ECA523",
",X c #E5AB24",
"<X c #EDAC23",
"1X c #E5A42B",
"2X c #ECA42B",
"3X c #E5AB2B",
"4X c #EBAB2B",
"5X c #F4A423",
"6X c #FAA424",
"7X c #F3AC23",
"8X c #FAAC23",
"9X c #F4A42A",
"0X c #F3AC2B",
"qX c #FCAD2B",
"wX c #FAA529",
"eX c #EDB223",
"rX c #ECB22B",
"tX c #EDBC2C",
"yX c #E6B127",
"uX c #F4B324",
"iX c #FAB323",
"pX c #F5B923",
"aX c #FDBA22",
"sX c #F4B42B",
"dX c #FBB42B",
"fX c #F5BB2D",
"gX c #FCBB2B",
"hX c #E3A533",
"jX c #EBAB33",
"kX c #E9A936",
"lX c #F3AC33",
"zX c #F7A936",
"xX c #EDB333",
"cX c #EBB23B",
"vX c #EFB935",
"bX c #F4B433",
"nX c #FBB432",
"mX c #F4BB34",
"MX c #FCBB32",
"NX c #F4BA3C",
"BX c #FABC3A",
"VX c #F7B43A",
"CX c #FDC228",
"ZX c #FAC234",
"AX c #EEC326",
"SX c #FFC11A",
"DX c #BB8944",
"FX c #EBB441",
"GX c #F7B843",
"HX c #EFAE4A",
"JX c #DF9846",
"KX c #FAC147",
/* pixels */
"*.K.L.L.P.K.4XjX5X>X:X-Xx.x.-X%XL.>XP.K.,X,XxXvXc w =X&Xt.q.k.5XP.G.P.4X4XsXF.L.4XF.,X-X:Xc.I.0XrX3XyX,XcXHX$.o }.kX$X6.l.E.5Xd.",
"iXaX'.CXaXaXgXMXP.fXvXAXAXAXtXmXZXZXMXmXZXmXZXZXl j HXzXE.G.<XbXgXaXsXsX<XgX_.uXKXNXvXcXGXtXmXGXxXxXrXrXvXGX{.5 =.hX1Xd.d.K.4XkX",
"E E / / E R Q Q #.$.OX@.@.( / E Q Q Q { { { W { @ + C D Y f J U J J j V J R K Z ] { K Z L k k V D D D f k V 5 # % q n i 5 3 9 9 ",
"+ * 5 & & 9 w 3 & o - & : 5 9 v t v w 0 9 & O O 1 * > & 8 t t t w 8 8 z z i q   . l a 8 N g h N v v v 6 0 w w C m A K K j V G v ",
"%X2X0X$X>X9XwX5X=.0 G -.-..X%XzX6XwX5X$Xd.;.-.-.+X;XhXXXhXhXlXhX8X8XqXqXdXiX1X^ 3 }.a.;.f.f.>X9X#X%X#XXXXX.X;XcXkX1X3X4XsXsXsX7X",
"Q.Q.).S.D.M.S.M.P.e ) R.b.5.1.2.0.e.0.4.4.3.m.b.G.dXpX,X^.I.!.Y.V.S.C.S.M.S.iXo.$  XN.0.q.9.0.B.T.b.7.F.P.P.P.<XbX4X7X7XQ.Q.R.T.",
":XK.I.I.(.T.`.`.3X4 ^ !.6.u.2.2.l.l.l.u.u.s.f.5XE.5X,X-X,XI.Q.!.J.Q.T.Y.V.J.xX| O +Xp.q.h.g.l.E.W.6.5.5.p.<X<X<X<X>X>Xk.k.!.T.Q.",
"d.>X<XT.R.R.C.).tXz  .U.1.u.B.h.4.N.N.4.1.1.2.E.T.G.:./.yXH.V.Z.V.S.C.C.M.D.mX/ & +X3.4.e.q.0.N.h.9.q.3.3.J.J.J.P.H.Q.U.E.!.J.H.",
"I.U.!.).C.N.V.T.P.w  .!.&.1.Z.5.N.b.8.h.6.h.h.j.8.U.G.x.I.I.U.D.V.R.Y.C.Z.R.zXs 1 |.*.3.U.p.8.4.g.0.6.&X%X1.m.L.v.K.>XI.m.T.(.T.",
"I.Q.R.R.R.Y.R.`.Q.4 H 6Xw.q.0.6.0.e.q.j.z.g.<.9.h.E.L.>X0X8XT.T.A.(.Y.C.M.`.lX) . }.W.9.g.g.l.e.j.Z.e.*Xg.0.C.N.m.I.0XiX(.).).Y.",
"].AX].].'.].A.SXeXs ~ qXwXk.p.&XY.W.Y.!.R.U.b.T.iX_.(.].gXaX'.'.].gXaXaX(.'.cX( 3 =XqXj.h.&X6Xw.E.b.T.6X6.B.).V._.sXnXdX_._.aX8X",
"[ $.$.@.#.| [ | L 1 x W K K k W Z G V V V K W { OX#./ R R Q E f L W L ! K L ] = o b h F Z Z Z j l 7 w v 8 V K Z G Z ' G h f N B ",
"> z 9 3 9 & X X @ @ * # # $ # * + * X X # * * o o 9 5 : 6 b Z g D N e e 6 3 9 * < : & 5 p , , , 1 % > q 0 c . X y M _ { { ^ } } ",
"E.wXk.u.u.t.;.a.o.-. X-.-.a.-.%X#X$Xd.i.L.2X%XO.6 o.;.;.a.%X2X>X!.!.p.p.p.5.i.y.4Xi.u.L.P.x.K.G.P.9X0XiXnX Xr E b.u.&XQ.U.Q.8X4X",
"2.j.e.r.q.w.h.E.7.4.N.e.B.R.C.).`.R.).).`.!.qX%.s =X5XB.h.6.8.8.w.h.6.y.U.U.U.E.8.6.*X6XT.`.R.!.S.!.Y.C.qX{.3 OXB.w.6.6.7.N.U.5.",
"5.p.U.h.7.7.d.:.<Xm.V.Q.U.T.(.A.!.T.(._.J.P.bXoXN .Xi.1.8.6.8.B.Y.E.i.y.d.i.i.F.3.5.l.E.T.].V.C.D.A.V.A.^.( X DXw.p.u.y.G.!.L.;.",
"u.z.h.h.h.y.y.d.H.J.v.I.Q.<XI.I.xX,Xx.yXrX3XNX{.A OXE.2.0.Y.B.8.wXf.7.L.0XP.i.Q.N.G.I.H.H.(.J.J.J.~.~.~.rX+X% X.$X5.w.Y.h.Y.W.u.",
"u.h.j.j.h.k.L.L.>XI.d.<X<X0X>X>X3X,X^.^.eXrXjX,.O  .$X2.q.l.E.w.6.6.b.J.iX8XL.!.Q.p.0XrX^.I.G.Q.qX8X_.^.GX+X# x &Xg.u.h.h.u.y.y.",
"8.U.R.V.m.U._.Q.x.P.P.I.<X<X0X<XJ.^.(.~.^.uXMX>.O o.Q.4.<.q.B.N.B.T.(.n._.iXU.(.T.J.I.^.H.H.T.uX8XJ.~.[.ZXbX8 g U.U.2.4.).`.T._.",
"rXmXMXMXiXuXmXZXAXZXZXmXtXmXmXmXmXZXfXtXrXmXNXXX5 @.hXP.L.5X0XsXgXgXgX<X<XbX3XbXxXxXxXmXmXmXGXNXGXbXrX<XtX;Xu u %X4X#X;.d.K.-X3X",
"m { W V W V B L { L | L J K k j V W W K Z Z A z   < n d h g r s s a s t g K C _ ] _ M j B w B M G N h g i q + @ 4 A A 0 & & : : ",
"% q & & 8 8 : : @ ; @ : q Z N g h h 8 0 5 & $ $ x q 7 u j g a j B g h h h M c   , C i a h s T k y h a h u q C _ x ] } ! G W { L ",
"XX4X4XL.7XsX<X<X+.6 o..X>.#Xi.p.8X7XL.f.f.#Xs.2XhX3X1X1X4X4X4X0XsX<X_.aX`.bXkXR t .X#Xf.E.wXnXuX5X5X$X>X XXX3XcX;X3X4XsXqXgXgX7X",
"<X8X!.!.!.!.R.aX=Xe  XzXy.6.2.0.B.Y.q.h.g.l.g.l.5XgXsXK.d.Q.!.!.8XY.C.S.M.8X2Xs S 9Xk.2.9.<.B.B.e.w.1.y.!.5X5XnXpXJ.b.C.C.C.C.Z.",
"7.J.T.V.S.V.D.).|.5 .XN.u.z.z.z.B.B.N.2.8.5.6.qX<XeXP.L.Q.!.U.V.V.D.Z.C.D.(.FXi H =X2.2.h.h.e.j.h.t.k.t.s.9X4X#XeXH.F.(.T.V.V.Z.",
"i.Q.T.V.V.S.).).}.3 ;.0.2.e.j.r.e.8.U.8.5.6.u.E.J.J.F.i.G.J.n.Z.n.A.C.S.S._.kX: G &X0.9.N.b.0.0.4.1.2.4.8.8.G.F.x.P.I._._.(.T.n.",
"L.qXiXU.T.!.`.!.+X3 }.h.6.g.j.e.l.g.l.l.t.h.k.u.G.G.p.L.L.Q.U.G.7X!.U.Y.B.8X;X& F zXq.q.p.8.U.z.w.w.w.q.w.8.h.8.#X:X2X>XL.Q.!.f.",
"U.(.R.V.Z.C.C.R.oX3 -.V.8.5.8.8.W.q.h.l.h.0.B.0.Y.8.8.!.!.!.I.J.8X`.C.C.S.'.2X8 F 9Xq.q.8.8.E.j.8XE.h.q.0.e.C.4.I.7XdXiXQ.iXiX`.",
"gXgXgX'.aX'.aXCXoXy oX!.wX5XL.U.qX5XL.E.Q.i.F.Q.MX8XI.gXZXMXMXMXMXgXiX'._.pXoXs ^ kX%Xf.#Xx.#X#XjX X>.s.f.!.7XJ.rXeXsXsX<XeXuXuX",
"} | / / / R W / n o n J V B j j v g 8 u g 8 A { ..| R K U j a j N j k V u d q . @ b e t n i i 3 9 # & 6 0 M p i a 8 g a u g u d ",
"M M w 6 6 3 & 3 , - * + % * % % $ * & & & > c * X 9 z 8 g h N { ' N M b w t g c < 0 6 N v i i 9 : 0 z z x <   2 N N } } X.+.} } ",
">X<XP.L.K.i.y.a.*.+X%X&.%X=X.XXX X#XP.8XI.bX.Xr I >.1X;.d.E.$XwXqXi.i.$X#XL.p.$X1XG.p.8Xd.c.F.d.I.dXnXVXlX( 7 @Xp.w.!.E.E.iXQ.p.",
"r.e.B.r.r.9.0.e.z.q.e.j.e.Y.`.R.).C.S.).).(.uXJ Y zXk.2.z.q.q.j.0.B.0.w.B.U.4.4.p.p.E.U.R.`.).).R.C.T.T.eXG A L.q.2.2.g.6.w.Y.h.",
"k.*X*Xl.g.u.s.s.h.h.E.T.U.T.R.(.`.V.).(.(.].NXY G 2Xi.2.e.e.U.W.W.j.y.u.f.p.p.G.U.p.Y.U.T.).V.V.R.R.Q.(.sXG 4 #Xz.g.h.j.W.W.W.p.",
"i.8.8.3.4.b.v.*.<X7X<X<X<X<X<X<X<XI.I.4X,X3XcXu D kXb.1.0.B.V.U.B.8.8.6XqXQ.G.T.U.J.T.U.T.T.T.T.!.(.Q.~.<X! X }.e.q.8.0.e.U.U.w.",
":.i.i.7.p.7XI.K.<XI.x.x.,X<X,X,X,X,X,X4X3XrXFXu 4 .Xs.1.6.0.8.8.i.i.f.0XnX0X>X7X7X7XI.<XL.L.L.>XQ.Q.7X<XjX+.X |.u.y.y.p.f.E.E.5X",
"L.Q.Q.Q.E.Q.uXeXm.~.H.c.^.Q.^._._.^.J.eX<XpXmXI 4 %XE.q.0.Y.C.Y.(.(.T.I.<XI.F.H.^.I.^.I.<XI.uXsX<XJ.I.<XgX|.# @.V.4.m.U.`.'.`.'.",
"sXgXMXgXaXuXsXmXxXmXZXZXNXbXnXBXZXBXbXVXnXmXGX .F =X9X$X%X5X5X0X_.pX^.I.eXtXrXyXjXxXxXmXbXrXmXmXNXyXjXkXNX+Xa / 2X:X:.:.:.K.>.:X",
"g g s j a u u u i j Z K j s s s d d s N g f j * o q r v y y u u 8 8 8 8 a M m m t g t a u 8 a u u u 8 0 s 5 X + 9 t 9 O O & & & ",
"l , : w L m < , o o + > z _ Z Z P B M m 5 : < < 2 > q { _ C P P Z G T W W n $ o z Z C V V K ! R M j ' b a 8 X.{ K  . .! / ..| K ",
"bXbX0X9X0X7XuXgXK 7 P.f.$Xh.s.E.W.W.z.h.f.L.:X1XkXFXcX1X1XeXsXdX7X_.gXgX7XCX|.l o.2X8.p.5XiX!.E.U.E.$X>X>X2XeXsXkXhX3XiX'.aX`.Q.",
"n.T.T.R.).C.D.].K s I.p.u.2.6.N.e.e.j.w.g.p.G.I.,X<XyXI.J.J.(.T.Q.V.T.!.T.'.|.* }.5X0.2.1.3.4.B.8.3.1.i.I.^.^./.cX3XI.T.S.).V.V.",
"J.Q.`.R.R.T.A.'.V M 4X6.t.0.u.6.U.E.h.h.y.p.f.L.<X7XI.E.Q.T.T.R.S.M.M.C.S.'.,.$ -.*X9.q.6.2.e.j.8.1.1.i.I.<XI.G.1X2XI.T.R.Y.R.`.",
"8.U.R.R.R.B.R.'.{ V <X7.u.N.h.8.b.b.8.4.2.5.8.U.J.G.b.G.U.V.B.T.R.C.C.R.!.iX}.$ +.*Xr.z.l.j.j.z.s.p.p.f.f.k.L.p.:X>X!.!.R.V.U.b.",
"J.T.R.S.C.V.).gX} D f.2.2.4.h.8.G.w.w.w.w.q.w.E.J.p.G.J.Q.E.E.E.T.R.R.k.W.aX@.X O.l.9.9.h.U.w.w.q.h.j.6.6.U.Y.U.<XI.Q.Q.!.Q.U.b.",
"I.(.T.T.A.T._.gXF s h.0.z.9.q.0.e.w.0.e.e.9.9.0.F.v.F.Q.7X_.I.<XV.A.).!.`.CX,.% %.T.4.1.3.b.N.U.8XW.Y.0.4.V.B.b.^.^._.Q._.'._.^.",
"rXrXpXpXgXgXmXKXQ k 7XE.wXp.>Xf.5X5X5X6XL.i.L.iXiXuXsXsXfXmXbXmXsXpXdXlXsXeX@., OXkX X#XoXoXoX}.}.oX-.oX#X1XjXkXyX,X,X1X:X,Xx.-X",
"Q ! Y Y I f a g <   B t 0 8 M i w w t t 5 6 L | ! R U g g t t g s s s t 6 u ,   1 9 6 M 9 0 8 O + + + : 7 7 7 w 7 w w 0 0 9 q i ",
"! D h t w 6 0 4 9 q & & 5 7 7 7 : : : q 8 u * - o M a j D ! E ~ D D N G G N B D r h D D D D S F f ^ ( I m - O D D ^  .+.+.+.o.+.",
"5X0X5X>Xf.$X$X$Xa.$Xa.>.K.>XK.>X<XI.>XsXsXsX{.& +.=XoXK.:X9X5XwX&X&Xk.&X*X&X&X5XL.L.0X8XQ.8XW.T.sXdXgXMX;XB ! 2X%X&X5Xk.W.5X&X&X",
"0.B.B.0.2.0.w.0.9.e.B.B.R.C.C.).C.M.C.S.S.'.>.4 a.wX4.4.8.q.q.0.B.w.2.5.L.h.8.b.4.4.N.Z.C.S.S.C.].n.m.'.|.: ~ 7Xq.<.2.2.4.N.0.w.",
"l.W.W.g.t.g.g.t.5.6.6.8.Y.U.N.Y.C.C.R.R.Z.I.+X4 }.&X1.2.q.w.E.W.G.b.:.7.i.i.i.F.4.N.B.V.R.C.C.C.).T.V.pX,.&  .&Xu.g.8.h.U.!.E.E.",
"p.h.p.y.6.h.y.6.G.8.8.J.T.U.n.T.Q.V.Y.R.A.CXhX0 -.k.1.2.p.h.Q.8XB.C.B.h.G.h.B.B.I.Q.Q.Q.U.J.b.U.n.T.Q.dX{.# +.5Xu.u.k.U.E.E.u.i.",
"G.U.G.p.U.E.T.8.e.Y.Y.B.B.N.V.).T.(.n.T.[.(.oX: %.p.3.4.4.b.v.m.Z.C.C.0.B.N.N.C.7X^.eX7XI.Q.Q._.N.T.T.dX#.. E E.9.q.0.0.0.w.8.5.",
"u.p.G.p.G.G.i.8.8.h.Y.h.w.0.B.R.H.iX8XuXJ._..X3 %.E.4.4.8.U.J.J.T.`.Q.Q.Q._.Q.I.J.J.G.H.T.T.(.R.m.V._.gXXX% ) T.h.e.w.w.T.8XuX0X",
"p.E.E.E.E.h.U.U.W.8X!.!.T.!.iX`.aXCXiXiX`.ZXkX6 }.nXh.g.k.9X0XsXgXgXsX0XsXMXsX7XBXqX9X8XdXqXqX8XsXnXVXcXJX<  .4Xf.a.;.:.:XxXxX1X",
"c q 9 z c 9 x < { W Q j J J d J P P P m m l % @ < < m C M 9 q B p , x b g V c ` z m n q p n n n B , < l 1 @ @ % x 9 5 > : 6 l 9 ",
"> 3 3 9 9 5 : + X # 0 5 8 r i g V V t 0 6 w x x : : 7 j J j f D u j G D I s .   s S D U Y Y I f I f s 8 q u j a U E Y Y Y I I U ",
"kX4X>X4XlXrX3XoX6 R XX>.$X>X2X0XW.E.f.u.>.#X2XjXcX3X1X1XjXlX9X>XeX0XnXdXiX3XJ q s.$X&X&X&XwXwX&X5X9X%X%X=XkXcXkXjXbXnXmXnXsXsXbX",
"T.S.S.S.S.).`.J.5 ) >X8.w.w.6.8.0.r.0.9.2.1.G.F.tXeXP.J.T.`.`.R.S.R.R.C.S.'.) i W.h.q.6.q.g.j.Y.j.j.q.h.8XdXeXP.<X<XL.Q.Q.T.Q.Q.",
"f.!.R.!.Y.`.iX0Xc +.zX6.6.g.g.W.l.h.g.u.s.f.2X0XH.I.>X>XE.E.U.B.R.R.Y.C.D.dXY q W.8.2.q.8.4.w.N.2.2.2.4.W.uXP.x.7XL.F.n.U.).T.B.",
"L.T.V.R.R.(.iX>X5 ( 5X2.9.e.w.R.U.b.8.5.8.v.F.I.F.P.>X>X>X!.T.T.R.!.Y.V.S.gX( _ h.1.5.G.h.p.b.8.1.8.5.8.J.7X,X-X<XI.F.T.(.).R.V.",
"Q.T.D.D.C.D.(.F.q {.7X2.0.e.1.m.U.b.8.8.8.7.7.F.J.G.L.L.P.L.n.[.S.`.U.C.Z.sXY M E.y.y.p.p.p.E.h.:.i.8.8.p.L.rXxX,X,XI.J.(.T.U.V.",
"jX7XT.T.G.J.<X#X* } %Xt.t.%X;.:.>XL.f.f.u.y.f.&Xi.d.2XjX3X,XP./.G.I.L.8X(.bXU 9 k.y.u.y.5.p.E.i.F.7.5.h.8.y.:XhX-X3X,XP.F.F.J.Q."
};
