/* XPM */
static char *_8018_81937d534a7601f8e1e99c1e8e6258796963667811441d231abc5be92aec4e69[] = {
/* columns rows colors chars-per-pixel */
"64 64 256 2 ",
"   c #050101",
".  c #0B0100",
"X  c #0B0A02",
"o  c #090808",
"O  c #130201",
"+  c #1B0401",
"@  c #150B03",
"#  c #1C0B03",
"$  c #1C0508",
"%  c #150B0B",
"&  c #1C0D0B",
"*  c #140409",
"=  c #1D120C",
"-  c #17150A",
";  c #190C12",
":  c #1D1312",
">  c #1A1816",
",  c #0A0E09",
"<  c #220301",
"1  c #2A0501",
"2  c #230B03",
"3  c #2C0C03",
"4  c #230D0B",
"5  c #2A0C0A",
"6  c #220609",
"7  c #330E04",
"8  c #330A07",
"9  c #2C1305",
"0  c #25130B",
"q  c #2B130D",
"w  c #2C1A0C",
"e  c #251708",
"r  c #32140B",
"t  c #3A150C",
"y  c #341A0C",
"u  c #3B1A0C",
"i  c #361504",
"p  c #250D12",
"a  c #241312",
"s  c #2C1513",
"d  c #241A14",
"f  c #2C1B13",
"g  c #261B1B",
"h  c #2C1B1B",
"j  c #281519",
"k  c #321512",
"l  c #341B14",
"z  c #3B1D14",
"x  c #331C1B",
"c  c #3C1D1B",
"v  c #371617",
"b  c #360F10",
"n  c #2D211B",
"m  c #292416",
"M  c #352214",
"N  c #3C2214",
"B  c #34221B",
"V  c #3B231C",
"C  c #3B2919",
"Z  c #35210C",
"A  c #2D1A22",
"S  c #361D21",
"D  c #2B2121",
"F  c #342323",
"G  c #3C2422",
"H  c #3C2B24",
"J  c #382929",
"K  c #3B302A",
"L  c #1C2021",
"P  c #46190B",
"I  c #431C14",
"U  c #421D1A",
"Y  c #4A1C17",
"T  c #541C16",
"R  c #571F0E",
"E  c #432314",
"W  c #4C2314",
"Q  c #44241B",
"!  c #4B241C",
"~  c #432A1D",
"^  c #4B2A1D",
"/  c #4B2B15",
"(  c #53251D",
")  c #532B1C",
"_  c #5C2C1C",
"`  c #572617",
"'  c #48321C",
"]  c #57321D",
"[  c #4D260E",
"{  c #66291A",
"}  c #65331D",
"|  c #763517",
" . c #471D22",
".. c #432423",
"X. c #4A2521",
"o. c #452A24",
"O. c #4C2B23",
"+. c #4B2D2A",
"@. c #442A2A",
"#. c #532C23",
"$. c #5B2C23",
"%. c #542E29",
"&. c #572A25",
"*. c #4C3225",
"=. c #4D332C",
"-. c #48352A",
";. c #553224",
":. c #5B3324",
">. c #5C3926",
",. c #54342B",
"<. c #5C352B",
"1. c #553A2C",
"2. c #5C3A2D",
"3. c #523C27",
"4. c #4A2F31",
"5. c #493635",
"6. c #543432",
"7. c #5B3532",
"8. c #553A33",
"9. c #5C3C33",
"0. c #5C3D3A",
"q. c #58393A",
"w. c #532E32",
"e. c #632F24",
"r. c #652E28",
"t. c #643425",
"y. c #6B3424",
"u. c #6B3B25",
"i. c #63342B",
"p. c #643B2B",
"a. c #6B3C2C",
"s. c #683828",
"d. c #733C2C",
"f. c #7A3D2C",
"g. c #753727",
"h. c #633C33",
"j. c #6B3C33",
"k. c #633D3B",
"l. c #6C3E39",
"z. c #673632",
"x. c #743D33",
"c. c #733D39",
"v. c #783C33",
"b. c #5D4135",
"n. c #5D433B",
"m. c #5A4837",
"M. c #584130",
"N. c #64412E",
"B. c #6D422C",
"V. c #73432E",
"C. c #7C432D",
"Z. c #7A482A",
"A. c #644234",
"S. c #6B4334",
"D. c #64433B",
"F. c #6B453B",
"G. c #65493D",
"H. c #6C493C",
"J. c #6A4935",
"K. c #734334",
"L. c #7B4334",
"P. c #754934",
"I. c #7A4934",
"U. c #73443B",
"Y. c #7B443B",
"T. c #734A3C",
"R. c #7C4B3D",
"E. c #79523D",
"W. c #7C421C",
"Q. c #663D42",
"!. c #5C4643",
"~. c #6C4542",
"^. c #6C4A42",
"/. c #674845",
"(. c #744542",
"). c #734C43",
"_. c #7C4C43",
"`. c #7C4D49",
"'. c #784844",
"]. c #6B534A",
"[. c #755144",
"{. c #7C5244",
"}. c #7C534B",
"|. c #795649",
" X c #7D5B51",
".X c #775755",
"XX c #7F605B",
"oX c #843E2D",
"OX c #86472C",
"+X c #834B3C",
"@X c #8C4C3B",
"#X c #864637",
"$X c #954D38",
"%X c #84523D",
"&X c #8B523B",
"*X c #8C5537",
"=X c #94553A",
"-X c #94522C",
";X c #A04F34",
":X c #834D43",
">X c #8B4D44",
",X c #854945",
"<X c #845344",
"1X c #8B5344",
"2X c #8B5B44",
"3X c #84544B",
"4X c #8B544A",
"5X c #845B4C",
"6X c #8D5B4C",
"7X c #835946",
"8X c #935443",
"9X c #945A44",
"0X c #935B4C",
"qX c #9A5C4B",
"wX c #995846",
"eX c #835B53",
"rX c #8B5C53",
"tX c #885552",
"yX c #965C53",
"uX c #934C42",
"iX c #A25A47",
"pX c #A25C55",
"aX c #B05E52",
"sX c #8B614B",
"dX c #9A634C",
"fX c #94634B",
"gX c #896356",
"hX c #956253",
"jX c #9C6253",
"kX c #93625C",
"lX c #9A6959",
"zX c #A4644C",
"xX c #A6694C",
"cX c #A36353",
"vX c #A46A55",
"bX c #A76859",
"nX c #B46B57",
"mX c #A97559",
"MX c #B8745D",
"NX c #B56A4D",
"BX c #8A6763",
"VX c #966962",
"CX c #9C7969",
"ZX c #A46C63",
"AX c #AA7565",
"SX c #B57665",
"DX c #B56D64",
"FX c #C47663",
"GX c #CC7C7B",
"HX c #CA7E5E",
"JX c #B98375",
"KX c #CB886F",
"LX c #E5897C",
"PX c #BB8F8E",
"IX c #EF948B",
"UX c #E5A48A",
/* pixels */
"g.1X).F.1.z 2.S.N.K.,Xd.d.J.T.K.t.J.M.;.>.a.S.1.p.[.K.{ t.K   A 4XOXW.7X7XlX4X`.U.z.>X4X:Xv.#X4X4X4X1Xa._ >.E.E.N.T.U.K.N.] C.iX",
"F.#.l e d # e 2 d q v 8 k B B q q x a = + < s a 9 z |.1XK.K   @.qXOX-XE.h.$.! %.l z X.l l Y *.-.D.9.;.O.,.N w M Z ~ Q ~ *.] } $X",
"H . . . & p a p & a v 6 O   . j p % . : G v 6 . O O +.4XT.F . S bXzXxX) < < < & @ O + . O O . X % . O O + O @ O @ e # # w C ] 1X",
"a . @.6.q.7.0.~.=.#.~.~.,.# G JX(.2 # 9.eXBX_.O.% . x j.<.h . ..>XuXmXQ p x F A 0 ..<.*.,.2.,.# 0 B @.G ..c G k m H n 0 # M #.r.",
"2 l gX|.R.j.e.r.i.} y.t.S.p.] K.'.< :.5Xy.f.fXhXD   @.i.! B . O.8X@XdXr A G H K E S.6XsXkXcXyXt.< ,.).(.rX'.i.<.0 k c c & o.l.T ",
". ~ lX+XOXL.S.a.F.j.,XU.J.,.$.x.3X3 ,._.x.L.v.+X5.% +.U.p.H . ..@X&XfXw A G z r 3 N.<Xu.V.cXDXf.< <.(.i.Q.4X_.t.Y Y U ..< *.`.T ",
"O o.5Xf.V.d.T.F.a.Y.<X:.>.2.p.4X~.1 ~ D._.,Xy.Y.K # o.4X{.H   V #X9XlXZ v :.y.u.E P.5X3 1 hXSXe.+ X.D.t 8 <.[.u S.<Xz.#.2 *.3X$.",
"$ U U.v.oXy.'.h.K.+X+Xt.J.t.P d.Q.+ ..`.c.#Xv.+X-.O z d.T.-.  8.%X*X2Xy l t.zXKXkXb ^ w # 2.:Xc.O -.].G < q H O x.ZX%XM.2 Z A.I ",
"O O.tX:XT.T.N.] '.h.} { K.) P I.4X< @.U.oXI._ yX!.. N P.J.5.. ^ 0XiXxXr 4 J.JXOXn.v A p 1 i.5XQ < #.3Xh.8 6 p ; w @.BX.X* s 6.X.",
"X w 7.$.d.R.L.pX`.p.u.f.).2.;.+X_.e + `.cX<XhX4Xh . o.P.h.5.. ! _.dXfXe O M.B.P + w F k _ &X1Xv.Y.a.yX<X&.U @.x < < l.~.< M ).t.",
"X m [.R.j.L.jXbXh.{.I.x.kX~.! >Xz.w . U x.<XgXx.+ O O.V.;.F . h.x.OXZ.9 = m.u.u.p.Q 7 W vXnX$XqXjXvX8XC.8XY.:.h.p.s.,X<.+ y h._ ",
"- ~ ).j.T.E.T.{ L.Z.OXL.`.%.! Y.{.f # X.e.^ E ! j * V B.2.J . p.@X=XdX3 a  X6X:X0XkX_.R.9X&XP.sXP.I.OXf.cX:Xt.F.F.5XkX%.1 M h.) ",
"# t eX$.#.p.t.y.OX| OX@XY.! t.=X{.e 0 [.R.E Q  .& . Q P.p.J   F.>X-XmX1 s D.1XY.4X}.7.K.fX%X^ l c 1 t.4XlXt.t Q q k 4.c O x D.U ",
"w O 7.'.}.yXZXGXKXKXKXyXh.9 / dXgXe % D.$.r 8.7.h . Q V.p.J *  XyXOXmXl : 2 i t q q + S.lXK.t x h q $.2XAXa.< 4 a + 4 j & F q. .",
"d & k %.M.o.&.'.{.J. X/.0 . ^ Z._.2 h .X`.;.=.Q.5.* q u.p.K . J.cXzXmXl = e i 7 7 q 3 :.lX=XE c J V $.0XMXP.P k V k 8 k s B O.X.",
"; & j @   X X X .   .   o ; o.K.z.l O 1 Y E k  .O . o.V.;.A . :.pXNXxXt A 8.R.kX:X:Xx.u.*XfXE - F z _ xXMXu._ A.H.S.l.<.2 l 2.! ",
": & 5 t P 7 O s q 2 r N 9 O t }.`.5 5 `.,Xu.K.,Xu . K a.<X5.. J.=X@XsXc V R.pXcXgXVX^.p.-X;X$X/ ` [ -X$XpX).A.:XK.4X3X,.+ l 6.I ",
"d O *.F.A.7.1.s + k.VXeX|.' b tXtX4 S BX4XR.<XtXH.O n j.K.F   p.iX=X<X5 q _.qXg.r ^ o.;.fXiXdXAXlXP.=XnXbX..l X.W S.(.,.e M D.&.",
"& 0 gX7Xs.:. X=.8 eXc.i.gXJ.T v.H.2 s D.K.u.j.kX] . a i.{.5.X 2.dX*XR.4 p j.<X_ 7 + + 4 F.9X1X|.|.J.fXzXU.4 @ + t s.j...# l h.i.",
"O w |.a.s.$.T.l v k.P i.U.I &.'.D.4 d h.$.u.S.`.2.% g K.}.5.. ).vX&XR.s e O._.5XCXc p . r j.:.< 2 Q S.t.t & d 0 A.|.~.o.# e ,.&.",
"# V T.` Y.K.).7 0 1.F.).>.E ! ).,.l s %._ _ p.$.A.% F U.<.F . J.0X&X{.l & r Q q.9.b S j e h.S.r 4 U j.#.q B C w b.D.,.G q l 2.T ",
"# z [.a.V.a.eXO.X 3.7.j.A.m.Q l h.5.0 X.s.t.s.z.! * h p.j.5.. #.L.#X:Xl s 5 + + < ~.BXx 9 E.eXN 4 %.+X/ 2 ~.[.E # k r l 0 N ).z.",
"# 2 h.t._ $. XO.d o.Y #.A.b.z ~ h...6 7.Y.V.R.'.A.% a z.3XJ . <.0XwX<Xl v V ..A 3 yXBX7 < B.gXz & F.4X[ < <XbXt.# l s x e l {.Y.",
"O + 9.U.t.$.].v # ~ z.( #.[.u #.i.V O k.bX1X+XkXF.. h i.<.: . D.>XbXyXc p c ..; i a.tX_.] } {.M # j.&XP.W >XqXoXC V l G s l H.r.",
"2 O r ~.`.eX=.+ < s /.0.8.y + Q !.@.O l =.D.0.8.% + c ,.q.g . o.$XnXbX` Y q G j 3 J.2XlXZXV.p.9 2 9.sX6XP.1XlXj.c c v -.0 Q T.I.",
"> o   p d F % X $ p a $ & O & @ % O $ h @ O O . O r <.h.w.j O +.&XqXbX$.U j A S $ @.6.&.k.4.s g ; A G @.c @.6.k S x j F p +.).K.",
"m.h & k 2 # # f ~ x V x q q f @.s B o.x l q l c &.rX1Xr.w.p . =.*X&XSXd.E l 5  .- - O . O X > L ; * . + + O 0 O 5 B d s q D.}.a.",
"fX<X&X9X+X8X9X0X2X2XhX1X_.x.z.`.K.4X6XK.4X1X:X1X<XvXf.{ /.J . K *XoXMX9Xd.p._ z.M.' / ] ] E ~ C 1.;.] p.:.W ;.p.S.:.#.p.p.+X@X@X",
"y.8X&XC.OX8XOX| OX0X#Xd.d.d.Y.x.y.g.v.g.+X@XdX#XV.V.C.T.M.%   m 2XOXqXqX2XsXsXjXbX$XiXiXMXnXoX>X9XdXdXcXjX2X8XjXrXR.T.+X:X>X#XuX",
"O.D.b.b.G.^.F.F.U._.T.U.h.).gXeX~.~.<.%.j.S.T.i.N.u.u.#.d o o X ].i.#.<.,.3.2.:.c.i.e.s.Y.'.<.l.] ;.O.,.9.,.;.<.B ..~ N u ;.X.U ",
"5 < + k w q I X.$.X.&.( P #.#.:.7.F.<.<.7.<.) W ) y.t.P O .   @ . + < k V M r i s B w C M f d 0 9 2 @ @ : a 0 0 0 = e w e 0 2 O ",
"#X4XY.S.R.:X+X@XyXbXuX,X8XbXdX#XI.I.R.0XP.+X+X+XVX_.0XVX0.; . @ + ..6.D.G.A.:.s.h.U.2.>.h.2.! h.B.p.<.,.+.+.#.<.l.U.R.{.E.).h.,.",
"NXiXiXnXzX@Xg.pXzXiXwXoX2X=X-X-XOX| *X&Xd.Y.Y.:X6XI.u.a.{.6.. * Q 9.2.<.h.p.<.;.K.` p.F.2.$.t.) W i.p._ 2.N.>.;.C.d.V.R.p.Y.#XY.",
"oX#XdX2X%Xs.i.|.6Xr.0XU.J.lXfX2Xa.sX|.p.j.h.7.,.p.P.E.S.<.O.* o ^ ;.O.^ ,.9.9.8.8.o.-.n.n...0.0.=.6.6.8.b.8.=.b.2.A.b.A.<.S.j.c.",
"hX<X;.^ *.Z C F 1 e.d.a.) 9 V f d e O + 2 + + O O r H.R.t.7.a . ^ ,.9.C q q q 4 @ d B & a s p v F a 4 a a = & # @ d e M M O.$.j.",
"#.r O .   > @ . g.NXFXKXvX7 O ; > . 3 gXgX<.].O.O . O.eX(.z.0   2.G. Xo.O O @ + # @ 0 # 2 + x a % O + 4 . . 0 +   -   . @ M O.,.",
"-.# g g = 0 + .XUXKXKXHXnX%X*.4 A 5 <XSXyXtXkXqXK # l U.j.i.+   <.,.m.M # x @.-.' A.N.] >.~ G x # N %.9.=.*.,.#.7./.+.x 2 k *.V ",
"=.O : n s < c.KXvXg.| NXvX4XXX: O i.pXg._ U.{ { 6.s w p.r.z.5 X #.o.D.Z y 1.D.}.:.7XhXV.P.J.l @ 2 A.U.U.J.m.H.Y.,X3X`.T.z l ,.l ",
"F O > j # H.LXOX) ) } u.L.Y.`.4 . 7XC.y.#.6.<X&XU.^ N T.Y.`.4 . ! O.G.9 N N.p.d.;.` V.%XP.p.n.+ e ^.U.) / ' U.>XoXv.L.{.^ z n.V ",
"J * > . Z CX*X| Y j.E.R.>XK.#.+ h A.R.7Xj . +.hXkX/ Z |.<X3X5 * %.7.G.9 >.lX#Xg.,.;.B.s.<XeX8.+ w ^.(.&.V N #.r.xX+XB.J.u r m...",
"..% 6 . m.x.7 ].sXI.R.K.d.K.kXq c ).,X`.+ . ,.yX4X<.1 `.<X^.% ; 4.O.U.8 c 3XsX&Xv.e.I._ T.5X2 @ t l.! ~ m M ,...z.jX#X:.,.v G N ",
"U X $ l ].R ] G.J.B.} P.<XU.{.w O ~.a.'.^ e ).bX<XO.t U.s.F.j o G 1.J.q + l A.).&.h.b.D.;.5 # X 7.tXP 5 V @.7./.<.K.g.:.X.f +.Q ",
"S   @ rX1XP W P u ` t.fXE.:.^.e . b.T.R.[.{.<X=X X0 e `.e.2.4 * *.' P.l & % @ + + 0 = 4 6 p g   %.ZXr.r *.o.t i.<.$.K.J.l 0 q.#.",
"X.  m DX#X[.8Xz.>.u.g.fXB.j.[.q X c h.z.a.<XpXnX3.. 2 _.x.F.= ; Q u T.B % ; - q 4 e d w s s F > l VXi.u -.1.l I Q / E.{.Q s 8.! ",
"G . E IXaX_ KXyXdXpX=XuXf.L.Y.N , ; j 0.F._.VXv.# . B (.R.F.O : O.I K.Q * S /.~.O.-.1.*.A.F.V 4 e G.) N l *.~ C z W P.T.V s 6.Y ",
"!.O u.IXiX7 4XSXcXnXFXbXf.#X6X^ , o . 6 2 r z 2 . O B S.R.p.. g w.u c.U S (.{.y.<.] ' i K.lX#.O m N.,.1.w q V ~ ^ p.E.E.+.s O.z ",
"F O FXFX| g.P ` 9XwXFXnX@X0XAXz . D 4 O O.1.O O X.4 l <.U.J.e a Q.^ R.k S ^.^ P j.:.] ) a.Y.O.+ o.{.t.l.,.#.i.,.j.R.1X{.O.5 +.Q ",
"> +.LX-XZ.SXAX[ C.#XzX9XC.t.5XN 3 BX7.Y ZXVXN .XPXc + F.<X:.4 O !.M.u.2 G h.;.[ l.#.).A.~.BX4.O 9 rXv.c.j.j.(.l.z.a.d.R.+.5 5.~ ",
"P H.BX7X$XnXJX( / {.{.J.P.$.0.d ^ <XY.U.+Xi.:.lXiX&.q j.V.A.q . <.^ 8.4 0 ].D.q.Q.v 6.eX(.! t x X H 0.0.^.9.0.].6.k.M.N & g +.! ",
"X.r m.P g.FX#XY 7 j.P.B.u.( b.> u '.s.t.R.P.:.Y.qX&.q :.R._.4 & ^ ! 8.s & x k ..k 0 0 e r 1 O m d # 2 1 r r s s b r 9 2 . n 6.I ",
"o.O @ O d.SXg.P ( x.R.a.d.v.).@ E <Xr.&._._.p.oXbX<.O T.lXj.O & ( O.D.B 0 + < 5 s e d e q M n > a + c Q 8 < 2 2 ..z I C & a 8.%.",
"G   ; +.ZXMX+X{.6Xd.C.#XyXyXl.e C '.$.( v.c.p.0X8XQ O A.hXtX+ : T.! ,.B s 4 c ....@.8.,...%.@.& B 6.%.#.}.0.+ h /.,.#.A.F 4 =.<.",
"h % L S j.qXcXhXlX1XC.I.pXpXc.s z (.&.&.c.j.<.8XK.E # S.I.(.4 d _.#.9.f 2 ..D.%. .w.%.X.r.Q.7.$ o.^.! u eX/.. h /.h.^ >.o.h +.Q ",
"4.& d @ 1 ` e.` v.DX@XC.wXbXtX2 v tXc.i._.|.#.r.R.O.+ U.v.z.s > :.#.H.q O =.n.Q ..@.l 3 X. X/.+ Q h.i.X.7.o.O d 6.F.F.h.M v ,.! ",
"F.. d & i.SX3XW R.cXC.OXuXwXkXV 8 tXc.&.Q.}.*.X.{.5.e i.#XtX& % p.) D.q 4 ,...O.c x 0 2 z 0.=.X Q H.i.#.A.... m z ,.T.l.k p ,.A.",
"j.< % a I y.z.U.hXdX#XOXg.#X_.y U yXY.&.i.h.*.&.N.3.4 U.>Xj.O g s.j.^.2 h [.Q Q 1 l e V ^.0.f O O.S.&.( <.x O g o.I _ a.c 4 O.<.",
"+.+ $ A 6 < 1XjX#XiXiXiX@XR.j.2 z [.F.,.h.h.! <.M.*.r 9.p.o.X > z.Q.R.1 f !.8.T 7 z #.7.|.9.e O ( ).<.Y D.N @ e ..@.6.0.U 5 +.<.",
"v * ; g j & 1.gXs.+X1X1X<X5Xm.+ 0 8.0.o.n./.c 9.|.9 7 _.h.*.X - X.l.rXy . F 1.j.4.+.q.+.V a 0 0 1 ^.^...8.f X d B q.5.V y r O.,.",
"8.+ O ; : % f C 2.h.).j.^ V 0   O # q # q M + s :.1 $.<Xz.9.O - ..<.gX=.. X H F.5.x x j $ & a : O B 5.@.h + : % 0 B n # # N ,.#.",
"T.O.U k B q < + i P :.) t r l =.^ l Q Q Q O.I O.R 0XAXd.Y 7.O % 4.z D.n.0 @ + 7 s 4 5 5 5 4 0 a = + 0 s + + x 4 # O # @ e o.h.Y.",
"y.+XyX6X<X<XZXbX%X2XyX4X:X<XR.lXyX1X:XyXyXyXlXhX0XZX1Xt.F.q.O % q.z #.1.@.4...Q *.+.#.#.,.7.*.O.*.9.o.N 1.^ ! 7.c U M l C O.&.c.",
"[ P.<X+Xu.OXSX8X@XqX0X#XL.Y.L.+Xd.g.{ r.K.d.+XR.$.U.U.U.n.F * . ..O.#.Y c q.0.<.J.2.<.j.U.{.A.2.S.S.2.>.D.,.h.)...@.+.V ~ O.! &.",
"*.G.A.N.{.sX<XP.P.7X{.T.j.a.R.I.^.^.7.;.<.O.*.;.=...O.O.f   . o ; c ~ Q v 4.4.*.O.1.F.~.h.H.k.F.}.,.8.n.-.c 7.w.@.j F B l H B 4 ",
"D n M N *.' Z ' ' N l -.@.l ^ / =.-.5.B H B d d F x x 0 - - > d : f M H h h x C f G ......+.V ..+.c @.K h d @.S J A n D F m - > "
};
